<?xml version="1.0" encoding="UTF-8" standalone="no"?>
<!-- Created with Inkscape (http://www.inkscape.org/) -->

<svg
   width="210mm"
   height="297mm"
   viewBox="0 0 210 297"
   version="1.1"
   id="svg349"
   inkscape:version="1.2.1 (9c6d41e410, 2022-07-14)"
   sodipodi:docname="mvc2.svg"
   xmlns:inkscape="http://www.inkscape.org/namespaces/inkscape"
   xmlns:sodipodi="http://sodipodi.sourceforge.net/DTD/sodipodi-0.dtd"
   xmlns="http://www.w3.org/2000/svg"
   xmlns:svg="http://www.w3.org/2000/svg">
  <sodipodi:namedview
     id="namedview351"
     pagecolor="#ffffff"
     bordercolor="#000000"
     borderopacity="0.25"
     inkscape:showpageshadow="2"
     inkscape:pageopacity="0.0"
     inkscape:pagecheckerboard="0"
     inkscape:deskcolor="#d1d1d1"
     inkscape:document-units="mm"
     showgrid="false"
     inkscape:zoom="1.4503086"
     inkscape:cx="418.5316"
     inkscape:cy="492.65376"
     inkscape:window-width="1920"
     inkscape:window-height="1001"
     inkscape:window-x="-9"
     inkscape:window-y="-9"
     inkscape:window-maximized="1"
     inkscape:current-layer="layer1" />
  <defs
     id="defs346">
    <marker
       style="overflow:visible"
       id="marker6547"
       refX="0"
       refY="0"
       orient="auto-start-reverse"
       inkscape:stockid="TriangleStart"
       markerWidth="12"
       markerHeight="13.87283238"
       viewBox="0 0 5.3244081 6.15538509"
       inkscape:isstock="true"
       inkscape:collect="always"
       preserveAspectRatio="xMidYMid">
      <path
         transform="scale(0.5)"
         style="fill:context-stroke;fill-rule:evenodd;stroke:context-stroke;stroke-width:1pt"
         d="M 5.77,0 -2.88,5 V -5 Z"
         id="path6545" />
    </marker>
    <marker
       style="overflow:visible"
       id="marker5877"
       refX="0"
       refY="0"
       orient="auto-start-reverse"
       inkscape:stockid="TriangleStart"
       markerWidth="11.32363605"
       markerHeight="13.09090874"
       viewBox="0 0 5.3244081 6.15538509"
       inkscape:isstock="true"
       inkscape:collect="always"
       preserveAspectRatio="xMidYMid">
      <path
         transform="scale(0.5)"
         style="fill:context-stroke;fill-rule:evenodd;stroke:context-stroke;stroke-width:1pt"
         d="M 5.77,0 -2.88,5 V -5 Z"
         id="path5875" />
    </marker>
    <marker
       style="overflow:visible"
       id="marker3138"
       refX="0"
       refY="0"
       orient="auto-start-reverse"
       inkscape:stockid="TriangleStart"
       markerWidth="10.99999958"
       markerHeight="12.71676252"
       viewBox="0 0 5.3244081 6.15538509"
       inkscape:isstock="true"
       inkscape:collect="always"
       preserveAspectRatio="xMidYMid">
      <path
         transform="scale(0.5)"
         style="fill:context-stroke;fill-rule:evenodd;stroke:context-stroke;stroke-width:1pt"
         d="M 5.77,0 -2.88,5 V -5 Z"
         id="path3136" />
    </marker>
    <marker
       style="overflow:visible"
       id="TriangleStart"
       refX="0"
       refY="0"
       orient="auto-start-reverse"
       inkscape:stockid="TriangleStart"
       markerWidth="10.4665"
       markerHeight="12.1"
       viewBox="0 0 5.3244081 6.1553851"
       inkscape:isstock="true"
       inkscape:collect="always"
       preserveAspectRatio="xMidYMid">
      <path
         transform="scale(0.5)"
         style="fill:context-stroke;fill-rule:evenodd;stroke:context-stroke;stroke-width:1pt"
         d="M 5.77,0 -2.88,5 V -5 Z"
         id="path135" />
    </marker>
    <marker
       style="overflow:visible"
       id="TriangleStart-8"
       refX="0"
       refY="0"
       orient="auto-start-reverse"
       inkscape:stockid="TriangleStart"
       markerWidth="10.4665"
       markerHeight="12.1"
       viewBox="0 0 5.3244081 6.1553851"
       inkscape:isstock="true"
       inkscape:collect="always"
       preserveAspectRatio="xMidYMid">
      <path
         transform="scale(0.5)"
         style="fill:context-stroke;fill-rule:evenodd;stroke:context-stroke;stroke-width:1pt"
         d="M 5.77,0 -2.88,5 V -5 Z"
         id="path135-8" />
    </marker>
    <marker
       style="overflow:visible"
       id="marker3138-0"
       refX="0"
       refY="0"
       orient="auto-start-reverse"
       inkscape:stockid="TriangleStart"
       markerWidth="9.5150003"
       markerHeight="11"
       viewBox="0 0 5.3244081 6.1553851"
       inkscape:isstock="true"
       inkscape:collect="always"
       preserveAspectRatio="xMidYMid">
      <path
         transform="scale(0.5)"
         style="fill:context-stroke;fill-rule:evenodd;stroke:context-stroke;stroke-width:1pt"
         d="M 5.77,0 -2.88,5 V -5 Z"
         id="path3136-7" />
    </marker>
    <marker
       style="overflow:visible"
       id="TriangleStart-4"
       refX="0"
       refY="0"
       orient="auto-start-reverse"
       inkscape:stockid="TriangleStart"
       markerWidth="10.4665"
       markerHeight="12.1"
       viewBox="0 0 5.3244081 6.1553851"
       inkscape:isstock="true"
       inkscape:collect="always"
       preserveAspectRatio="xMidYMid">
      <path
         transform="scale(0.5)"
         style="fill:context-stroke;fill-rule:evenodd;stroke:context-stroke;stroke-width:1pt"
         d="M 5.77,0 -2.88,5 V -5 Z"
         id="path135-6" />
    </marker>
    <marker
       style="overflow:visible"
       id="TriangleStart-4-3"
       refX="0"
       refY="0"
       orient="auto-start-reverse"
       inkscape:stockid="TriangleStart"
       markerWidth="10.4665"
       markerHeight="12.1"
       viewBox="0 0 5.3244081 6.1553851"
       inkscape:isstock="true"
       inkscape:collect="always"
       preserveAspectRatio="xMidYMid">
      <path
         transform="scale(0.5)"
         style="fill:context-stroke;fill-rule:evenodd;stroke:context-stroke;stroke-width:1pt"
         d="M 5.77,0 -2.88,5 V -5 Z"
         id="path135-6-4" />
    </marker>
    <marker
       style="overflow:visible"
       id="marker3138-01"
       refX="0"
       refY="0"
       orient="auto-start-reverse"
       inkscape:stockid="TriangleStart"
       markerWidth="11"
       markerHeight="12.716763"
       viewBox="0 0 5.3244081 6.1553851"
       inkscape:isstock="true"
       inkscape:collect="always"
       preserveAspectRatio="xMidYMid">
      <path
         transform="scale(0.5)"
         style="fill:context-stroke;fill-rule:evenodd;stroke:context-stroke;stroke-width:1pt"
         d="M 5.77,0 -2.88,5 V -5 Z"
         id="path3136-5" />
    </marker>
    <clipPath
       clipPathUnits="userSpaceOnUse"
       id="clipPath12240">
      <path
         id="path12242"
         style="fill:#ff0000;fill-opacity:1;fill-rule:nonzero;stroke:none;stroke-width:0.264583"
         d="m 142.00012,151.45225 v 7.58145 c 0.11869,-0.0593 0.24019,-0.11313 0.36225,-0.16381 0.229,-0.0897 0.46827,-0.15623 0.71365,-0.17983 0.0793,-0.008 0.13312,-0.01 0.18655,-0.01 0.0534,0 0.10636,0.002 0.185,0.004 0.35061,0.0299 0.6806,0.15979 1.01648,0.25529 0.19556,0.0518 0.39387,0.0937 0.5917,0.13591 0.0568,0.0116 0.11416,0.0189 0.17156,0.0269 0.5085,0.0672 0.76445,0.33033 0.79427,0.59222 h 10.67015 v -8.24189 h -2.49132 c 0.0486,0.0259 0.0965,0.0533 0.14366,0.0827 0.12559,0.0243 0.24113,0.0945 0.35191,0.15554 0.1279,0.0748 0.22611,0.17966 0.32867,0.28319 0.397,0.40075 0.52088,0.80164 0.46612,1.11002 0.0574,0.0684 0.11187,0.15055 0.16123,0.24752 0.0481,0.0944 0.12585,0.16152 0.21135,0.22272 0.26333,0.18428 0.53964,0.3549 0.69764,0.64648 0.0253,0.0831 0.0625,0.16318 0.0754,0.24908 0.0292,0.19444 -0.0307,0.38587 -0.0785,0.57102 -0.29357,1.13608 -1.45158,0.80567 -1.1405,-0.32608 2.6e-4,-0.001 7.9e-4,-0.002 10e-4,-0.003 -0.0109,-0.009 -0.0218,-0.0174 -0.0331,-0.0253 -0.0671,-0.0472 -0.13476,-0.0935 -0.20206,-0.14056 -0.22149,-0.1499 -0.39436,-0.34616 -0.53847,-0.56896 -0.0843,-0.13036 -0.13791,-0.2555 -0.16639,-0.37207 -0.20563,-0.0707 -0.42633,-0.20913 -0.64596,-0.43149 -0.0193,-0.0195 -0.0305,-0.0306 -0.0393,-0.0398 -0.11679,-0.0437 -0.23293,-0.0896 -0.339,-0.15657 -0.0779,-0.0491 -0.0447,-0.0241 -0.017,-0.0181 0.002,5.3e-4 -0.0559,-0.0275 -0.0734,-0.0305 -0.0613,-0.011 -0.20514,-0.0187 -0.25064,-0.0382 -0.002,-10e-4 0.006,-0.002 0.009,-0.003 0.0118,-0.003 0.0255,-0.002 0.0362,-0.008 0.007,-0.003 -0.0152,1.3e-4 -0.0222,0.001 -0.0259,0.005 -0.0514,0.0111 -0.077,0.017 -0.0649,0.0158 -0.124,0.0325 -0.1881,0.0517 -0.0388,0.0116 -0.0781,0.0241 -0.11679,0.0362 -0.3035,0.0981 -0.6074,0.19127 -0.92811,0.21136 -0.41216,0.0348 -0.82517,0.0724 -1.2392,0.0734 -0.41515,-0.002 -0.83029,-0.004 -1.2454,-0.0103 -0.40604,-0.007 -0.81272,-0.0151 -1.21853,-0.031 -0.3263,-0.01 -0.65208,1.4e-4 -0.97772,0.0243 -0.40288,0.0301 -0.80579,0.0694 -1.20251,0.14831 -0.41871,0.0746 -0.837,0.14604 -1.25677,0.21394 h -10e-4 c -0.37347,0.0604 -0.68457,0.0264 -0.92398,-0.0656 0.007,0.18401 -0.0574,0.40694 -0.22531,0.64802 -0.0204,0.0293 -0.0407,0.0593 -0.0636,0.0868 -0.0682,0.13952 -0.12845,0.2824 -0.16485,0.43408 -0.0381,0.14033 -0.0592,0.28318 -0.0522,0.42892 0.0577,1.17243 -1.13656,1.17283 -1.18546,0 -0.0101,-0.24208 0.0313,-0.47972 0.0868,-0.71417 0.0569,-0.23248 0.14557,-0.45405 0.25011,-0.6687 0.0435,-0.0867 0.10077,-0.16513 0.15607,-0.24443 0.215,-0.30865 0.46087,-0.44884 0.67386,-0.46508 -0.13202,-0.3996 0.15772,-0.88424 0.98702,-1.05214 0.4726,-0.0957 0.95006,-0.16748 1.42472,-0.25218 0.45259,-0.0889 0.91104,-0.13531 1.37046,-0.17001 0.20107,-0.0151 0.40216,-0.0246 0.60358,-0.0289 0.002,-0.0262 0.005,-0.0529 0.009,-0.0791 z m 11.82925,1.67329 c 0.009,0.005 0.0159,0.01 0.0263,0.016 0.0236,-0.005 0.0182,-0.001 -0.0263,-0.016 z" />
    </clipPath>
    <clipPath
       clipPathUnits="userSpaceOnUse"
       id="clipPath12672">
      <path
         id="path12674"
         style="fill:#ff0000;fill-opacity:1;fill-rule:nonzero;stroke:none;stroke-width:0.264583"
         d="m 142.00012,142.29312 v 8.24188 h 8.4739 c 0.0736,-0.006 0.14698,-0.0117 0.22066,-0.0171 0.0517,-0.004 0.10215,-0.006 0.15089,-0.006 0.11388,-7.9e-4 0.21944,0.007 0.31678,0.0233 h 2.63395 c -0.0309,-0.30044 0.23913,-0.62726 0.83354,-0.66766 0.0573,-0.004 0.0294,-0.002 0.0832,-0.006 0.10042,-0.0162 0.20205,-0.0282 0.30075,-0.0532 0.12447,-0.0315 0.23914,-0.0465 0.34314,-0.0475 0.57772,-0.006 0.82693,0.41521 0.60771,0.77463 h 0.72709 v -8.24188 z m 7.23315,3.33985 v 5.3e-4 5.3e-4 c 0.22248,-5.3e-4 0.44426,0.0134 0.66404,0.0579 0.18139,0.0367 0.33032,0.0857 0.50643,0.1385 0.45329,0.13145 0.87642,0.34031 1.29966,0.54518 0.20698,0.0985 0.10316,0.0474 0.31161,0.15348 0.003,0.001 0.005,0.003 0.008,0.004 0.19764,-0.0182 0.39538,-0.0359 0.59325,-0.0517 0.16631,-0.0105 0.33494,-0.0241 0.50281,-0.0258 0.16787,-0.002 0.33507,0.008 0.49971,0.0439 0.0696,0.0151 0.13676,0.0393 0.20516,0.0589 0.1284,0.0504 0.2509,0.11382 0.3638,0.19068 0.058,-0.21648 0.2742,-0.38521 0.60823,-0.38499 0.12515,9e-5 0.26667,0.0236 0.42271,0.0775 0.0687,0.0237 0.13876,0.0434 0.20826,0.0646 1.12268,0.34295 0.78574,1.46497 -0.34107,1.13584 -0.0823,-0.024 -0.16354,-0.0495 -0.24494,-0.0765 -0.0209,-0.007 -0.0411,-0.0142 -0.061,-0.0217 0.0223,0.051 0.044,0.1023 0.0646,0.15399 0.0795,0.20678 0.0786,0.42531 0.0589,0.64182 -0.14976,1.64588 -1.94395,1.46508 -1.67174,-0.14883 -0.009,-0.0189 -0.0184,-0.0379 -0.0274,-0.0568 -0.039,-5.3e-4 -0.0783,2.7e-4 -0.11731,0.001 -0.16478,0.003 -0.15528,0.005 -0.33745,0.0181 -0.14943,0.0119 -0.29874,0.0252 -0.44803,0.0388 -0.11175,0.033 -0.23939,0.046 -0.38034,0.0351 -0.23546,0.0218 -0.47113,0.0427 -0.70693,0.0605 -0.39007,0.0252 -0.78186,0.0254 -1.17048,0.0713 -0.41957,0.0479 -0.83766,0.10986 -1.25883,0.14366 -0.41426,0.0285 -0.82937,0.0467 -1.24127,0.10232 -0.25158,0.0358 -0.50245,0.0764 -0.74673,0.14831 -0.3136,0.0786 -0.63108,0.14099 -0.95239,0.1788 -0.32363,0.0389 -0.64955,0.0614 -0.97565,0.062 h -5.3e-4 c -1.07374,0.002 -1.45261,-0.69471 -1.13739,-1.19063 -0.0658,-0.37153 0.17736,-0.84228 0.84438,-1.14567 0.40291,-0.1832 0.82561,-0.31403 1.25213,-0.42891 0.5505,-0.12571 1.08963,-0.29413 1.63917,-0.42376 0.50609,-0.12137 1.02583,-0.15309 1.54409,-0.16691 0.0744,-0.003 0.14858,-0.004 0.22274,-0.005 z m 4.00906,2.50062 -0.001,5.3e-4 c 0.002,0.001 0.004,0.004 0.006,0.005 2.6e-4,-5.3e-4 2.2e-4,-0.001 0.002,-0.002 0.0175,-0.0116 0.0401,0.0301 0.061,0.017 0.0137,-0.0208 -0.0332,-0.021 -0.0677,-0.0207 z m 0.0186,0.016 c 0.003,0.002 0.004,0.004 0.008,0.007 0.003,0.002 0.0102,0.005 0.009,0.003 -0.003,-0.003 -0.0103,-0.007 -0.0165,-0.01 z m 0.002,0.10697 c 0.005,0.0241 0.0111,0.0442 0.0186,0.0476 -0.006,-0.0162 -0.0119,-0.0318 -0.0186,-0.0476 z" />
    </clipPath>
    <clipPath
       clipPathUnits="userSpaceOnUse"
       id="clipPath12736">
      <path
         id="path12738"
         style="fill:#ff0000;fill-opacity:1;fill-rule:nonzero;stroke:none;stroke-width:0.264583"
         d="m 143.87507,147.20977 -1.87482,5.3e-4 v 2.65359 c 0.15857,-0.16279 0.32424,-0.3183 0.48938,-0.47439 0.30053,-0.27988 0.5787,-0.58188 0.85834,-0.88212 l 0.0966,-0.0992 c 0.0616,-0.0631 0.12327,-0.11681 0.18448,-0.16175 -0.0203,-0.15024 0.0138,-0.30435 0.1018,-0.44286 -0.0327,-0.1844 0.0105,-0.39311 0.14418,-0.59376 z m 12.81679,0 -2.07016,5.3e-4 c 0.005,0.008 0.009,0.0156 0.014,0.0233 0.0734,0.153 0.14545,0.30691 0.20825,0.46457 0.0613,0.1595 0.0748,0.32583 0.0687,0.49299 0.0568,0.004 0.11617,0.0126 0.1788,0.0263 0.0191,-0.0609 0.0556,-0.0982 0.11937,-0.0972 0.06,0.001 0.14351,0.0349 0.25735,0.11214 0.0592,0.0402 0.11857,0.0802 0.17777,0.12041 0.0248,0.0264 0.051,0.0518 0.076,0.078 0.38395,0.19822 0.50381,0.50806 0.41393,0.74776 0.14051,0.27212 0.27627,0.54644 0.416,0.81907 0.0432,0.0777 0.0913,0.16203 0.14004,0.2496 z m -3.4494,0.92345 v 5.3e-4 l -0.001,5.3e-4 c 0.002,0.001 0.004,0.004 0.006,0.005 2.6e-4,-5.3e-4 2.7e-4,-5.3e-4 0.002,-0.002 0.0175,-0.0116 0.0401,0.0296 0.061,0.0165 0.0137,-0.0208 -0.0332,-0.021 -0.0677,-0.0207 z m -0.0382,0.001 c -0.039,-5.3e-4 -0.0783,2.6e-4 -0.11731,0.001 -0.16478,0.003 -0.15527,0.005 -0.33744,0.0181 -0.15046,0.0119 -0.30083,0.0251 -0.45114,0.0388 -0.11083,0.0323 -0.23731,0.0458 -0.37672,0.0351 -0.23564,0.0218 -0.47146,0.0427 -0.70745,0.0605 -0.39007,0.0252 -0.78185,0.0254 -1.17047,0.0713 -0.41955,0.0479 -0.83767,0.10986 -1.25884,0.14366 -0.41426,0.0285 -0.82938,0.0467 -1.24127,0.10232 -0.2516,0.0358 -0.50246,0.0764 -0.74672,0.14831 -0.31363,0.0786 -0.63109,0.141 -0.9524,0.1788 -0.32362,0.0389 -0.64957,0.0614 -0.97565,0.062 h -5.3e-4 c -0.1318,2.4e-4 -0.25294,-0.01 -0.3638,-0.0289 -0.0521,0.0892 -0.12205,0.18084 -0.21187,0.27234 -0.0256,0.0261 -0.0514,0.0519 -0.077,0.078 -0.29689,0.31875 -0.59266,0.63859 -0.91157,0.93586 -0.13613,0.12849 -0.25048,0.23431 -0.38293,0.36742 -0.0288,0.029 -0.0578,0.058 -0.0863,0.0873 0.52223,0.44367 0.146,1.1697 -0.78239,0.90796 -0.0179,-0.005 -0.0352,-0.0102 -0.0522,-0.0155 v 3.70934 h 14.69161 v -4.01888 c -0.32346,-0.31151 -0.76533,-0.81512 -0.84904,-0.13746 -0.001,0.012 0.008,0.0366 -0.004,0.0357 -0.0141,-8e-4 -0.0121,-0.0248 -0.0181,-0.0372 -0.0142,-0.0285 -0.0285,-0.0574 -0.0429,-0.0858 -0.0838,-0.16536 -0.17231,-0.32743 -0.26251,-0.48938 -0.18003,-0.34707 -0.35007,-0.6989 -0.5333,-1.04438 -0.0279,-0.04 -0.048,-0.0853 -0.0667,-0.13125 -0.01,-0.003 -0.0193,-0.006 -0.0289,-0.009 -0.13347,-0.0442 -0.24509,-0.0994 -0.33693,-0.16175 -0.55355,0.58204 -1.52359,0.1801 -1.31827,-1.03714 -0.009,-0.0189 -0.0179,-0.0379 -0.0269,-0.0568 z m 0.0584,0.0165 c 0.002,0.002 0.002,0.003 0.006,0.006 0.003,0.002 0.0106,0.005 0.009,0.003 -0.003,-0.003 -0.009,-0.005 -0.0145,-0.008 z m 0.002,0.10594 c 0.005,0.0241 0.0111,0.0441 0.0186,0.0475 -0.006,-0.0162 -0.0119,-0.0317 -0.0186,-0.0475 z m -10.94972,2.19625 c 0.003,0.002 0.0164,0.007 0.0408,0.0139 -0.0179,-0.009 -0.0392,-0.0149 -0.0408,-0.0139 z m 8.53333,0.0589 c 0.84633,-0.006 1.23852,0.48493 1.13792,0.93844 0.085,-0.0245 0.16889,-0.0532 0.25373,-0.0806 0.27926,-0.0968 0.5634,-0.1625 0.85834,-0.1788 v -5.3e-4 c 0.18981,0.005 0.37774,0.0339 0.56431,0.0672 0.24696,0.0459 0.4726,0.14528 0.68471,0.2775 0.12522,0.0242 0.24041,0.0941 0.35089,0.15503 0.0174,-0.001 0.0215,-0.002 0.061,-0.005 0.10042,-0.0162 0.20205,-0.0282 0.30075,-0.0532 0.12447,-0.0315 0.23913,-0.0465 0.34313,-0.0475 0.81797,-0.008 0.97723,0.83928 0.0811,1.156 0.17757,0.82318 -0.74355,1.32855 -1.64848,0.41238 -0.0193,-0.0195 -0.0305,-0.0306 -0.0393,-0.0398 -0.11679,-0.0437 -0.23292,-0.0896 -0.33899,-0.15658 -0.0779,-0.0491 -0.0448,-0.0241 -0.0171,-0.0181 0.002,5.3e-4 -0.0559,-0.0275 -0.0734,-0.0305 -0.0613,-0.011 -0.20513,-0.0188 -0.25063,-0.0382 -0.002,-0.001 0.006,-0.002 0.009,-0.003 0.0118,-0.003 0.0247,-0.002 0.0357,-0.008 0.007,-0.003 -0.0152,1.9e-4 -0.0222,0.001 -0.0259,0.005 -0.0514,0.0106 -0.077,0.0165 -0.0649,0.0158 -0.12502,0.0325 -0.18913,0.0517 -0.0388,0.0116 -0.0776,0.0247 -0.11627,0.0367 -0.30349,0.0981 -0.60791,0.19126 -0.92863,0.21136 -0.41216,0.0348 -0.82466,0.0724 -1.23868,0.0734 -0.41515,-0.002 -0.8303,-0.004 -1.2454,-0.0103 -0.40604,-0.006 -0.81222,-0.0151 -1.21802,-0.031 -0.32628,-0.01 -0.6526,1.2e-4 -0.97823,0.0243 -0.40289,0.0301 -0.80527,0.0694 -1.202,0.14831 -0.4187,0.0746 -0.83802,0.14605 -1.2578,0.21395 h -5.3e-4 c -1.63884,0.26504 -2.08806,-1.28289 -0.46095,-1.61231 0.47259,-0.0957 0.95006,-0.16749 1.42472,-0.25218 0.4526,-0.0888 0.91104,-0.13532 1.37046,-0.17002 0.2009,-0.0151 0.40233,-0.0246 0.60358,-0.0289 0.0227,-0.38959 0.40057,-0.78711 1.16427,-0.86248 0.38317,-0.0378 0.76761,-0.0632 1.15186,-0.0863 0.25215,-0.0239 0.50392,-0.0463 0.75655,-0.0646 0.0517,-0.004 0.10215,-0.006 0.15089,-0.006 z m 2.98432,2.61379 c 0.009,0.005 0.0153,0.01 0.0258,0.016 0.0236,-0.005 0.0187,-0.001 -0.0258,-0.016 z" />
    </clipPath>
    <clipPath
       clipPathUnits="userSpaceOnUse"
       id="clipPath12800">
      <path
         id="path12802"
         style="fill:#ff0000;fill-opacity:1;fill-rule:nonzero;stroke:none;stroke-width:0.264583"
         d="m 143.87499,147.20982 -1.87482,5.3e-4 v 2.65358 c 0.15857,-0.16278 0.32423,-0.31829 0.48937,-0.47438 0.30053,-0.27988 0.57871,-0.58188 0.85835,-0.88212 l 0.0966,-0.0992 c 0.0616,-0.0631 0.12327,-0.11681 0.18448,-0.16175 -0.0203,-0.15024 0.0138,-0.30435 0.1018,-0.44286 -0.0327,-0.1844 0.0105,-0.39312 0.14418,-0.59377 z m 12.81679,0 -2.07016,5.3e-4 c 0.005,0.008 0.009,0.0156 0.0139,0.0233 0.0734,0.153 0.14546,0.30692 0.20826,0.46458 0.0725,0.18846 0.0775,0.38637 0.063,0.58394 0.0586,-0.009 0.11742,-0.0171 0.1757,-0.0279 0.0149,-0.0828 0.0524,-0.13506 0.12816,-0.13384 0.0482,7.9e-4 0.11268,0.0241 0.19482,0.0729 0.039,-0.004 0.0768,-0.006 0.11317,-0.007 0.62324,-0.006 0.8643,0.48436 0.54726,0.85834 0.16578,0.31582 0.32308,0.63551 0.48576,0.95292 0.0432,0.0777 0.0913,0.16202 0.14004,0.24959 z m -3.4494,0.92346 v 5.3e-4 l -0.001,5.3e-4 c 0.002,0.001 0.004,0.004 0.006,0.005 2.6e-4,-5.2e-4 -1.8e-4,-0.001 0.002,-0.002 0.0175,-0.0116 0.0401,0.0302 0.061,0.017 0.0137,-0.0208 -0.0332,-0.021 -0.0677,-0.0207 z m -0.0382,10e-4 c -0.039,-5.3e-4 -0.0783,2.6e-4 -0.11731,0.001 -0.16478,0.003 -0.15528,0.005 -0.33745,0.0181 -0.15046,0.0119 -0.30082,0.0251 -0.45113,0.0387 -0.11083,0.0323 -0.23731,0.0458 -0.37672,0.0351 -0.23564,0.0218 -0.47146,0.0427 -0.70745,0.0605 -0.39007,0.0252 -0.78185,0.0254 -1.17047,0.0713 -0.41955,0.0479 -0.83767,0.10986 -1.25884,0.14366 -0.41426,0.0285 -0.82938,0.0467 -1.24127,0.10232 -0.2516,0.0358 -0.50246,0.0764 -0.74672,0.14831 -0.31363,0.0786 -0.63109,0.141 -0.9524,0.1788 -0.32362,0.0389 -0.64957,0.0614 -0.97565,0.062 h -5.3e-4 c -0.1318,2.4e-4 -0.25294,-0.0101 -0.3638,-0.0289 -0.0521,0.0892 -0.12205,0.18084 -0.21187,0.27234 -0.0256,0.0261 -0.0514,0.0519 -0.077,0.078 -0.29689,0.31875 -0.59267,0.63859 -0.91157,0.93586 -0.13613,0.12849 -0.25048,0.23431 -0.38293,0.36742 -0.0288,0.029 -0.0578,0.058 -0.0863,0.0873 0.52225,0.44367 0.14601,1.1697 -0.78238,0.90796 -0.0179,-0.005 -0.0352,-0.0102 -0.0522,-0.0155 v 3.70934 h 14.69161 v -4.01894 c -0.32346,-0.31151 -0.76534,-0.81512 -0.84905,-0.13746 -0.001,0.012 0.008,0.0366 -0.004,0.0357 -0.0141,-7.9e-4 -0.0121,-0.0248 -0.0181,-0.0372 -0.0142,-0.0285 -0.0285,-0.0574 -0.0429,-0.0858 -0.0838,-0.16536 -0.17231,-0.32743 -0.26251,-0.48938 -0.18003,-0.34707 -0.35007,-0.6989 -0.5333,-1.04438 -0.0133,-0.019 -0.0246,-0.0396 -0.0351,-0.0605 -0.0131,0.001 -0.0226,0.002 -0.0687,0.006 -0.22543,0.017 -0.41069,-0.0136 -0.55449,-0.0744 -0.55347,0.2943 -1.27189,-0.1464 -1.09244,-1.21026 -0.009,-0.0189 -0.0179,-0.0379 -0.0269,-0.0568 z m 0.0579,0.016 c 0.002,0.002 0.002,0.003 0.006,0.006 0.003,0.002 0.0108,0.005 0.009,0.003 -0.003,-0.003 -0.01,-0.006 -0.0155,-0.009 z m 0.002,0.10646 c 0.005,0.0241 0.0111,0.0436 0.0186,0.047 -0.006,-0.0162 -0.0119,-0.0312 -0.0186,-0.047 z m -10.94972,2.19625 c 0.003,0.002 0.0164,0.007 0.0408,0.0134 -0.0179,-0.009 -0.0392,-0.0144 -0.0408,-0.0134 z m 8.53333,0.0589 c 0.84633,-0.006 1.23852,0.48492 1.13792,0.93844 0.085,-0.0245 0.16889,-0.0532 0.25373,-0.0806 0.27926,-0.0968 0.56341,-0.1625 0.85835,-0.1788 v -5.3e-4 c 0.18981,0.005 0.37773,0.0339 0.5643,0.0672 0.24696,0.0459 0.47261,0.14528 0.68472,0.2775 0.12559,0.0243 0.24113,0.0945 0.35191,0.15555 0.1279,0.0748 0.2261,0.17965 0.32866,0.28318 1.16836,1.17937 -0.0256,2.36032 -1.19217,1.17926 -0.0193,-0.0195 -0.0305,-0.0306 -0.0393,-0.0398 -0.11679,-0.0437 -0.23292,-0.0896 -0.33899,-0.15658 -0.0779,-0.0491 -0.0449,-0.0241 -0.0171,-0.0181 0.002,5.2e-4 -0.0559,-0.0275 -0.0734,-0.0305 -0.0613,-0.011 -0.20513,-0.0187 -0.25063,-0.0382 -0.002,-0.001 0.006,-0.002 0.009,-0.003 0.0118,-0.003 0.0247,-0.002 0.0357,-0.008 0.007,-0.003 -0.0152,1.6e-4 -0.0222,0.001 -0.0259,0.005 -0.0514,0.0111 -0.077,0.017 -0.0649,0.0158 -0.12503,0.0325 -0.18914,0.0517 -0.0388,0.0116 -0.0776,0.0241 -0.11627,0.0362 -0.30349,0.0981 -0.60791,0.19126 -0.92863,0.21136 -0.41216,0.0348 -0.82466,0.0724 -1.23868,0.0734 -0.41515,-0.002 -0.83029,-0.004 -1.2454,-0.0103 -0.40604,-0.006 -0.81222,-0.0151 -1.21802,-0.031 -0.32629,-0.01 -0.6526,1.3e-4 -0.97823,0.0243 -0.40289,0.0301 -0.80527,0.0694 -1.202,0.14832 -0.4187,0.0746 -0.83802,0.14604 -1.2578,0.21394 h -5.3e-4 c -1.63884,0.26504 -2.08807,-1.28289 -0.46095,-1.61231 0.47259,-0.0957 0.95006,-0.16749 1.42472,-0.25218 0.45259,-0.0888 0.91104,-0.13531 1.37046,-0.17001 0.2009,-0.0151 0.40233,-0.0241 0.60358,-0.0284 0.0227,-0.38959 0.40056,-0.78711 1.16427,-0.86248 0.38317,-0.0378 0.7676,-0.0632 1.15187,-0.0863 0.25215,-0.0239 0.50391,-0.0463 0.75654,-0.0646 0.0517,-0.004 0.10214,-0.006 0.15089,-0.006 z m 2.98432,2.61379 c 0.009,0.005 0.0159,0.01 0.0264,0.016 0.0236,-0.005 0.0181,-0.001 -0.0264,-0.016 z" />
    </clipPath>
    <clipPath
       clipPathUnits="userSpaceOnUse"
       id="clipPath12864">
      <path
         id="path12866"
         style="fill:#ff0000;fill-opacity:1;fill-rule:nonzero;stroke:none;stroke-width:0.264583"
         d="m 142.5453,146.03243 -0.0486,5.3e-4 c -0.0358,0.16711 -0.0711,0.3345 -0.10284,0.50229 0.003,0.0645 0.004,0.12899 0.003,0.19327 -2.3e-4,0.0125 -0.0383,0.001 -0.0362,-0.0114 0.0104,-0.0607 0.0216,-0.12143 0.0331,-0.1819 -0.007,-0.16727 -0.024,-0.33491 -0.031,-0.50178 l -0.45683,5.3e-4 v 10.02368 c 10e-4,5e-5 0.002,5.3e-4 0.003,5.3e-4 0.0157,-0.004 0.0301,-0.007 0.0429,-0.007 0.0188,0.001 0.0339,0.008 0.047,0.0196 0.22728,0.0563 0.45487,0.27998 0.56586,0.70125 0.0531,0.2017 0.10373,0.40542 0.0801,0.61598 -0.008,0.16708 -0.0178,0.33431 -0.0284,0.50126 h -5.3e-4 c -0.009,0.14441 -0.036,0.27098 -0.0739,0.37982 0.003,0.0188 0.005,0.0376 0.008,0.0563 0.0441,0.14756 0.10245,0.2902 0.17104,0.42788 0.11629,-0.0296 0.23431,-0.0515 0.35399,-0.063 0.0793,-0.008 0.13312,-0.01 0.18655,-0.01 0.0534,0 0.10636,0.002 0.185,0.004 0.35061,0.0299 0.6806,0.15977 1.01648,0.25529 0.19556,0.0518 0.39386,0.0937 0.59169,0.1359 0.0568,0.0116 0.11417,0.0189 0.17157,0.0269 0.28942,0.0382 0.49674,0.13986 0.62735,0.26872 0.47362,-0.0472 0.94677,-0.0994 1.41955,-0.15399 0.65528,-0.0674 1.31139,-0.13115 1.96991,-0.15555 0.9371,-0.018 1.87433,-0.005 2.81119,0.0202 0.21119,0.007 0.42247,0.0142 0.63356,0.0238 0.0105,-0.01 0.0214,-0.0193 0.0331,-0.0279 0.19051,-0.1405 0.41766,-0.1791 0.64802,-0.19638 0.14578,-0.006 0.29333,-0.0113 0.43977,-0.005 0.20467,-0.0168 0.40841,-0.0411 0.61133,-0.0729 0.22457,-0.0362 0.449,-0.0739 0.67438,-0.10491 0.2374,-0.0329 0.47647,-0.0474 0.71572,-0.0589 0.0415,-0.004 0.0832,-0.007 0.12454,-0.007 0.0172,-2.6e-4 0.0345,-2.6e-4 0.0517,0 -0.0266,-0.14377 -0.0447,-0.28934 -0.061,-0.43458 -0.0241,-0.19906 -0.0264,-0.398 -0.008,-0.59739 0.0105,-0.10867 0.0307,-0.20556 0.0584,-0.29197 -0.0399,-0.13733 -0.0537,-0.27354 -0.0506,-0.42426 0.0149,-0.11527 0.005,-0.0605 0.0269,-0.16537 0.0447,-0.21553 0.10947,-0.29945 0.18603,-0.30178 0.11391,-0.003 0.25359,0.17437 0.39171,0.37103 0.007,-5.3e-4 0.0149,-0.001 0.0222,-0.002 0.0151,-2.3e-4 0.0299,7.9e-4 0.045,0.002 v -10.15338 c -0.12313,0.0783 -0.28535,0.14116 -0.48834,0.17827 -0.0448,0.008 -0.0895,0.0155 -0.13436,0.0228 0.37974,0.44951 -0.0195,1.06022 -0.88935,0.80615 -0.0823,-0.024 -0.16356,-0.0495 -0.24495,-0.0765 -0.765,-0.25347 -0.82425,-0.86875 -0.42736,-1.10588 -0.15542,0.0222 -0.3118,0.0367 -0.46922,0.0326 -0.19786,1.2e-4 -0.39591,5.3e-4 -0.59377,0.001 -0.23992,0.001 -0.47996,-8e-4 -0.71985,0.005 -0.2311,0.004 -0.46229,0.0105 -0.69298,0.0248 -0.22116,0.015 -0.44121,0.0376 -0.66043,0.0708 -0.22682,0.0386 -0.44851,0.0945 -0.66714,0.16639 -0.27155,0.0698 -0.5457,0.12833 -0.82734,0.13333 -0.30621,0.004 -0.6124,-0.009 -0.91829,-0.0207 -0.39727,-0.0186 -0.79437,-0.0439 -1.19011,-0.0842 -0.35079,-0.0286 -0.70058,-0.0642 -1.05161,-0.0894 -0.25885,-0.018 -0.51834,-0.0281 -0.77618,-0.0589 -0.23517,-0.012 -0.47045,-0.009 -0.7059,-0.009 h -0.8568 -0.79065 v -5.3e-4 c -0.0425,0 -0.0831,-0.002 -0.12247,-0.005 -0.14446,0.0854 -0.34561,0.14034 -0.60358,0.14211 -0.0895,5.3e-4 -0.17991,-0.005 -0.2682,-0.0207 -5.3e-4,0.002 -5.3e-4,0.004 -0.002,0.006 -0.0913,0.36254 -0.0908,0.2571 -0.0553,-0.017 -0.0201,-0.004 -0.0347,-0.006 -0.0227,-0.006 0.008,1.1e-4 0.0152,0.001 0.0233,0.002 0.0243,-0.18724 0.0644,-0.44916 0.10284,-0.69763 z m 0.0987,0.1695 c -0.048,0.18009 -0.098,0.35989 -0.14366,0.54053 0.002,5.3e-4 0.004,5.3e-4 0.007,0.001 0.0642,-0.006 0.18065,0.0448 0.19275,-0.0186 0.0237,-0.12425 0.0302,-0.25013 0.031,-0.37672 -0.0386,-0.046 -0.0671,-0.095 -0.0868,-0.14624 z m 0.0109,2.40709 h 0.001 c 0.30872,0.008 0.28879,1.79801 0.73794,0.92552 0.1009,-0.19583 0.0732,-0.15607 0.0501,-0.0811 -0.0403,0.1143 -0.0882,0.23415 -0.15658,0.33125 -0.0292,0.0503 -0.0224,0.11079 -0.045,0.16329 -0.001,0.001 -0.003,-0.003 -0.004,-0.005 -0.008,-0.009 -0.0191,-0.045 -0.0181,-0.0326 0.008,0.0819 0.067,0.15708 0.0832,0.23668 v 5.3e-4 c 0.23483,1.15017 -0.68288,1.46253 -1.125,0.37518 -0.0573,-0.14089 -0.10607,-0.28439 -0.12247,-0.43667 -0.006,-0.0509 -0.003,-0.10228 -0.004,-0.15348 0.0143,-0.20781 0.0634,-0.40935 0.13953,-0.60255 0.025,-0.0918 0.10816,-0.16178 0.12816,-0.25528 0.0226,-0.0849 0.0668,-0.15158 0.10955,-0.23048 0.0919,-0.16924 0.16524,-0.23672 0.22583,-0.23512 z m 12.70207,1.15135 c 0.84679,-0.008 0.98764,0.90014 -0.0176,1.18752 -0.14283,0.0409 -0.29036,0.0605 -0.43667,0.0842 -0.13636,0.0149 -0.0736,0.009 -0.18655,0.0176 -1.17056,0.0884 -1.25749,-1.10275 -0.0863,-1.18235 0.0573,-0.004 0.0294,-0.002 0.0832,-0.006 0.10042,-0.0162 0.20205,-0.0282 0.30075,-0.0532 0.12447,-0.0315 0.23914,-0.0465 0.34314,-0.0475 z m -2.18488,9.20357 c -0.008,5.3e-4 -0.0159,0.003 -0.0233,0.007 0.008,-0.002 0.0155,-0.005 0.0233,-0.007 z" />
    </clipPath>
  </defs>
  <g
     inkscape:label="Vrstva 1"
     inkscape:groupmode="layer"
     id="layer1">
    <rect
       style="fill:#000000;fill-opacity:0.0617284;stroke:#000000;stroke-width:0.677529;stroke-dasharray:none;stroke-opacity:1"
       id="rect405"
       width="36.838825"
       height="19.322472"
       x="25.911764"
       y="60.338764" />
    <ellipse
       style="fill:#000000;fill-opacity:0.0617284;stroke:#000000;stroke-width:0.630981;stroke-dasharray:none;stroke-opacity:1"
       id="path1138"
       cx="112.19595"
       cy="70"
       rx="27.929173"
       ry="9.6845093" />
    <text
       xml:space="preserve"
       style="font-size:9.0091px;fill:#000000;fill-opacity:0.0617284;stroke:#000000;stroke-width:0.567503;stroke-dasharray:none;stroke-opacity:1"
       x="92.7342"
       y="73.130669"
       id="text1194-0"><tspan
         sodipodi:role="line"
         id="tspan1192-1"
         style="stroke-width:0.567503;stroke-dasharray:none"
         x="92.7342"
         y="73.130669">Controller</tspan></text>
    <text
       xml:space="preserve"
       style="font-size:9.0091px;fill:#000000;fill-opacity:0.0617284;stroke:#000000;stroke-width:0.567503;stroke-dasharray:none;stroke-opacity:1"
       x="34.11618"
       y="72.923462"
       id="text1194"><tspan
         sodipodi:role="line"
         id="tspan1192"
         style="stroke-width:0.567503;stroke-dasharray:none"
         x="34.11618"
         y="72.923462">View</tspan></text>
    <path
       style="fill:none;fill-rule:evenodd;stroke:#000000;stroke-width:0.312171;stroke-linecap:butt;stroke-linejoin:miter;stroke-dasharray:none;stroke-opacity:1;marker-start:url(#TriangleStart);marker-end:url(#marker3138)"
       d="m 64.462959,70.097433 18.018025,-0.21147"
       id="path1320"
       inkscape:connector-type="polyline"
       inkscape:connector-curvature="0" />
    <path
       style="fill:none;fill-rule:evenodd;stroke:#000000;stroke-width:0.312171;stroke-linecap:butt;stroke-linejoin:miter;stroke-dasharray:none;stroke-opacity:1;marker-start:url(#TriangleStart-4)"
       d="m 143.09749,71.134347 16.33055,7.616231"
       id="path1320-4"
       inkscape:connector-type="polyline"
       inkscape:connector-curvature="0" />
    <path
       style="fill:none;fill-rule:evenodd;stroke:#000000;stroke-width:0.312171;stroke-linecap:butt;stroke-linejoin:miter;stroke-dasharray:none;stroke-opacity:1;marker-start:url(#TriangleStart-4-3)"
       d="m 142.54509,97.385019 16.67456,-6.830297"
       id="path1320-4-3"
       inkscape:connector-type="polyline"
       inkscape:connector-curvature="0" />
    <rect
       style="fill:#000000;fill-opacity:0;stroke:#000000;stroke-width:0.255279;stroke-dasharray:0.765838, 0.765838;stroke-dashoffset:0;stroke-opacity:1"
       id="rect3672"
       width="118.56904"
       height="24.519569"
       x="23.472996"
       y="57.52879" />
    <rect
       style="fill:#000000;fill-opacity:0.0617284;stroke:#000000;stroke-width:0.677529;stroke-dasharray:none;stroke-opacity:1"
       id="rect405-3"
       width="36.838825"
       height="19.322472"
       x="25.971743"
       y="88.073593" />
    <rect
       style="fill:#000000;fill-opacity:0.0617284;stroke:#000000;stroke-width:1.04756;stroke-dasharray:none;stroke-opacity:1"
       id="rect405-3-8"
       width="65.880615"
       height="25.829397"
       x="46.523209"
       y="137.06688" />
    <text
       xml:space="preserve"
       style="font-size:9.0091px;fill:#000000;fill-opacity:0.0617284;stroke:#000000;stroke-width:0.567503;stroke-dasharray:none;stroke-opacity:1"
       x="51.339226"
       y="149.8179"
       id="text1194-3-2"><tspan
         sodipodi:role="line"
         id="tspan1192-15-0"
         style="stroke-width:0.567503;stroke-dasharray:none"
         x="51.339226"
         y="149.8179">Model</tspan></text>
    <ellipse
       style="fill:#000000;fill-opacity:0.0617284;stroke:#000000;stroke-width:0.630981;stroke-dasharray:none;stroke-opacity:1"
       id="path1138-0"
       cx="112.25593"
       cy="97.734833"
       rx="27.929173"
       ry="9.6845093" />
    <text
       xml:space="preserve"
       style="font-size:9.0091px;fill:#000000;fill-opacity:0.0617284;stroke:#000000;stroke-width:0.567503;stroke-dasharray:none;stroke-opacity:1"
       x="92.794174"
       y="100.86549"
       id="text1194-0-2"><tspan
         sodipodi:role="line"
         id="tspan1192-1-8"
         style="stroke-width:0.567503;stroke-dasharray:none"
         x="92.794174"
         y="100.86549">Controller</tspan></text>
    <text
       xml:space="preserve"
       style="font-size:9.0091px;fill:#000000;fill-opacity:0.0617284;stroke:#000000;stroke-width:0.567503;stroke-dasharray:none;stroke-opacity:1"
       x="34.176159"
       y="100.65829"
       id="text1194-3"><tspan
         sodipodi:role="line"
         id="tspan1192-15"
         style="stroke-width:0.567503;stroke-dasharray:none"
         x="34.176159"
         y="100.65829">View</tspan></text>
    <path
       style="fill:none;fill-rule:evenodd;stroke:#000000;stroke-width:0.312171;stroke-linecap:butt;stroke-linejoin:miter;stroke-dasharray:none;stroke-opacity:1;marker-start:url(#TriangleStart-8);marker-end:url(#marker3138-0)"
       d="m 64.522937,97.832264 18.018025,-0.21147"
       id="path1320-6"
       inkscape:connector-type="polyline"
       inkscape:connector-curvature="0" />
    <rect
       style="fill:#000000;fill-opacity:0;stroke:#000000;stroke-width:0.255279;stroke-dasharray:0.765838, 0.765838;stroke-dashoffset:0;stroke-opacity:1"
       id="rect3672-8"
       width="118.56904"
       height="24.519569"
       x="23.532974"
       y="85.263618" />
    <rect
       style="fill:#000000;fill-opacity:0;stroke:#000000;stroke-width:0.865;stroke-dasharray:none;stroke-dashoffset:0;stroke-opacity:1"
       id="rect3939"
       width="131.0632"
       height="69.659569"
       x="18.059889"
       y="49.277695" />
    <text
       xml:space="preserve"
       style="font-size:5.60619px;fill:#000000;fill-opacity:0;stroke:#000000;stroke-width:0.344;stroke-dasharray:none;stroke-dashoffset:0;stroke-opacity:1"
       x="25.299599"
       y="54.531609"
       id="text3995"><tspan
         sodipodi:role="line"
         style="stroke-width:0.344;stroke-dasharray:none"
         x="25.299599"
         y="54.531609"
         id="tspan3997">Screen</tspan></text>
    <text
       xml:space="preserve"
       style="font-size:3.175px;fill:#000000;fill-opacity:0;stroke:#000000;stroke-width:0.244;stroke-dasharray:none;stroke-dashoffset:0;stroke-opacity:1"
       x="151.31606"
       y="83.204483"
       id="text4457"><tspan
         sodipodi:role="line"
         id="tspan4455"
         style="stroke-width:0.244;stroke-dasharray:none"
         x="151.31606"
         y="83.204483">User inputs from</tspan><tspan
         sodipodi:role="line"
         style="stroke-width:0.244;stroke-dasharray:none"
         x="151.31606"
         y="87.173233"
         id="tspan4459">keyboard, mouse, etc.</tspan></text>
    <path
       style="fill:none;fill-rule:evenodd;stroke:#000000;stroke-width:0.258428px;stroke-linecap:butt;stroke-linejoin:miter;stroke-opacity:1;marker-start:url(#marker3138);stroke-dasharray:0.51685601,0.51685601;stroke-dashoffset:0"
       d="m 64.226446,75.790069 9.324548,58.349761"
       id="path4553"
       inkscape:connector-type="polyline"
       inkscape:connector-curvature="0" />
    <path
       style="fill:none;fill-rule:evenodd;stroke:#000000;stroke-width:0.246595px;stroke-linecap:butt;stroke-linejoin:miter;stroke-dasharray:0.493189, 0.493189;stroke-dashoffset:0;stroke-opacity:1;marker-start:url(#marker3138-01)"
       d="m 45.41694,109.39206 24.453957,24.83352"
       id="path4553-2"
       inkscape:connector-type="polyline"
       inkscape:connector-curvature="0" />
    <path
       style="fill:none;fill-rule:evenodd;stroke:#000000;stroke-width:0.264583px;stroke-linecap:butt;stroke-linejoin:miter;stroke-opacity:1;marker-end:url(#marker5877)"
       d="M 84.881478,74.045545 76.883529,133.38518"
       id="path5873"
       inkscape:connector-type="polyline"
       inkscape:connector-curvature="0" />
    <path
       style="fill:none;fill-rule:evenodd;stroke:#000000;stroke-width:0.264583px;stroke-linecap:butt;stroke-linejoin:miter;stroke-opacity:1;marker-end:url(#marker6547)"
       d="M 109.90733,108.35934 81.527501,134.41717"
       id="path6543"
       inkscape:connector-type="polyline"
       inkscape:connector-curvature="0" />
    <path
       id="path7572"
       style="fill:#000000;fill-opacity:0;stroke:#000000;stroke-width:0.244;stroke-dasharray:none;stroke-dashoffset:0;stroke-opacity:1"
       d="m 149.34592,142.41508 a 7.2239561,3.9989753 0 0 0 -7.22385,3.99924 7.2239561,3.9989753 0 0 0 7.22385,3.99872 7.2239561,3.9989753 0 0 0 7.22385,-3.99872 7.2239561,3.9989753 0 0 0 -7.22385,-3.99924 z m -0.3669,3.97598 c 0.0675,-3e-5 0.13504,5.6e-4 0.20257,0.002 0.31895,0.021 0.63674,0.059 0.95343,0.1018 1.64514,0.22257 1.41706,1.88959 -0.22737,1.66192 -0.25574,-0.0354 -0.51232,-0.0645 -0.76947,-0.0873 -0.46886,-0.0145 -0.9368,0.0311 -1.40353,0.0713 -0.46439,0.0471 -0.92413,0.11698 -1.38493,0.19068 -1.63929,0.26229 -1.8463,-1.3941 -0.20825,-1.66398 0.47301,-0.0779 0.94619,-0.14602 1.42317,-0.19482 0.47044,-0.045 0.942,-0.0814 1.41438,-0.0816 z"
       clip-path="url(#clipPath12672)"
       transform="translate(-50.716216)" />
    <path
       id="path7572-8"
       style="fill:#000000;fill-opacity:0;stroke:#000000;stroke-width:0.244;stroke-dasharray:none;stroke-dashoffset:0;stroke-opacity:1"
       d="m 151.25588,147.33054 c 0.0575,0.47873 -0.41922,0.95493 -1.34823,0.82631 -0.25574,-0.0354 -0.51232,-0.0645 -0.76947,-0.0873 -0.46886,-0.0145 -0.9368,0.0311 -1.40353,0.0713 -0.46439,0.0471 -0.92413,0.11698 -1.38493,0.19068 -0.64465,0.10315 -1.06781,-0.0905 -1.24437,-0.37982 a 7.2239561,3.9989753 0 0 0 -2.98328,3.23546 7.2239561,3.9989753 0 0 0 7.22385,3.99873 7.2239561,3.9989753 0 0 0 7.22385,-3.99873 7.2239561,3.9989753 0 0 0 -5.31389,-3.85661 z"
       clip-path="url(#clipPath12736)"
       transform="translate(-50.761824,-1.8243243)" />
    <path
       id="path7572-8-6"
       style="fill:#000000;fill-opacity:0;stroke:#000000;stroke-width:0.244;stroke-dasharray:none;stroke-dashoffset:0;stroke-opacity:1"
       d="m 151.25588,147.33054 c 0.0575,0.47873 -0.41922,0.95493 -1.34823,0.82631 -0.25574,-0.0354 -0.51232,-0.0645 -0.76947,-0.0873 -0.46886,-0.0145 -0.9368,0.0311 -1.40353,0.0713 -0.46439,0.0471 -0.92413,0.11698 -1.38493,0.19068 -0.64465,0.10315 -1.06781,-0.0905 -1.24437,-0.37982 a 7.2239561,3.9989753 0 0 0 -2.98328,3.23546 7.2239561,3.9989753 0 0 0 7.22385,3.99873 7.2239561,3.9989753 0 0 0 7.22385,-3.99873 7.2239561,3.9989753 0 0 0 -5.31389,-3.85661 z"
       clip-path="url(#clipPath12800)"
       transform="translate(-50.878014,1.5738599)" />
    <ellipse
       style="fill:#000000;fill-opacity:0;stroke:#000000;stroke-width:0.244;stroke-dasharray:none;stroke-dashoffset:0;stroke-opacity:1"
       id="path7572-8-0"
       cx="149.34596"
       cy="155.57304"
       rx="7.2239561"
       ry="3.9989753"
       clip-path="url(#clipPath12240)"
       transform="translate(-50.716216)" />
    <rect
       style="fill:#000000;fill-opacity:0;stroke:#000000;stroke-width:0.244822;stroke-dasharray:none;stroke-dashoffset:0;stroke-opacity:1"
       id="rect10184"
       width="14.44709"
       height="13.377314"
       x="142.02855"
       y="146.15651"
       clip-path="url(#clipPath12864)"
       transform="translate(-50.716216)" />
    <text
       xml:space="preserve"
       style="font-size:3.175px;fill:#000000;fill-opacity:0;stroke:#000000;stroke-width:0.244;stroke-dasharray:none;stroke-dashoffset:0;stroke-opacity:1"
       x="22.439188"
       y="127.55087"
       id="text12992"><tspan
         sodipodi:role="line"
         id="tspan12990"
         style="stroke-width:0.244"
         x="22.439188"
         y="127.55087">State change notifications</tspan></text>
    <text
       xml:space="preserve"
       style="font-size:3.175px;fill:#000000;fill-opacity:0;stroke:#000000;stroke-width:0.244;stroke-dasharray:none;stroke-dashoffset:0;stroke-opacity:1"
       x="91.945946"
       y="127.535"
       id="text12996"><tspan
         sodipodi:role="line"
         style="stroke-width:0.244"
         x="91.945946"
         y="127.535"
         id="tspan12998">State change commands</tspan></text>
  </g>
</svg>
