<?xml version="1.0" encoding="UTF-8"?>
<svg width="600" height="465.35" version="1.1" viewBox="0 0 600 465.35" xmlns="http://www.w3.org/2000/svg">
 <path d="m139.05 26.01c0-13.662 11.075-24.738 24.738-24.738h224.46c6.5607 0 12.853 2.6063 17.492 7.2455 4.6393 4.6392 7.2455 10.931 7.2455 17.492v98.949c0 13.662-11.075 24.738-24.738 24.738h-224.46c-13.662 0-24.738-11.075-24.738-24.738z" fill="#cfe2f3" stroke="#000" stroke-linejoin="round" stroke-miterlimit="10" stroke-width="2.5343"/>
 <g stroke-width="4.7892">
  <path d="m226.64 56.13v-17.225h6.4941q1.7225 0 2.6332 0.15853 1.2672 0.21789 2.1185 0.81171 0.85133 0.59399 1.3661 1.6631 0.53456 1.0691 0.53456 2.3363 0 2.1976-1.4057 3.7222-1.3859 1.5245-5.0487 1.5245h-4.4152v7.0089zm2.2769-9.0481h4.4548q2.2175 0 3.1282-0.81176 0.93053-0.83154 0.93053-2.3165 0-1.0889-0.55439-1.8611-0.53457-0.77212-1.4255-1.0097-0.57417-0.15852-2.1185-0.15852h-4.4152zm13.194 9.0481v-12.493h1.9007v1.9007q0.7326-1.3265 1.3463-1.7423 0.61377-0.43534 1.3662-0.43534 1.0691 0 2.1779 0.69294l-0.73255 1.9601q-0.77215-0.45544-1.5641-0.45544-0.69295 0-1.2473 0.41569-0.53456 0.4157-0.77215 1.1483-0.35632 1.1286-0.35632 2.4749v6.5334zm16.445-4.0192 2.1779 0.2773q-0.51473 1.9007-1.9205 2.9698-1.3859 1.0494-3.5638 1.0494-2.7322 0-4.336-1.6829-1.6037-1.6829-1.6037-4.7319 0-3.148 1.6037-4.8902 1.6235-1.7423 4.2172-1.7423 2.5144 0 4.0984 1.7027 1.5839 1.7027 1.5839 4.8112 0 0.17816-0.0191 0.55439h-9.3053q0.11873 2.0591 1.1681 3.148 1.0494 1.089 2.6135 1.089 1.1483 0 1.9601-0.59396 0.83159-0.61377 1.3266-1.9601zm-6.9495-3.4252h6.9692q-0.1384-1.5641-0.79193-2.3561-1.0097-1.2276-2.6333-1.2276-1.4453 0-2.4551 0.98997-0.98992 0.97014-1.0889 2.5937zm10.692 3.7222 2.0987-0.33667q0.17815 1.2671 0.97014 1.9403 0.81176 0.65339 2.2571 0.65339 1.4651 0 2.1581-0.59396 0.71277-0.59399 0.71277-1.3859 0-0.71277-0.61378-1.1286-0.4358-0.27728-2.1581-0.71277-2.3362-0.59394-3.247-1.0097-0.89097-0.43533-1.3662-1.1879-0.45544-0.77215-0.45544-1.6829 0-0.83159 0.37643-1.5443 0.39607-0.71277 1.0493-1.188 0.49497-0.35632 1.3463-0.61377 0.85132-0.25719 1.8215-0.25719 1.4849 0 2.5937 0.43534 1.1087 0.4157 1.6235 1.1483 0.53456 0.71278 0.73255 1.9205l-2.0591 0.27729q-0.13841-0.95036-0.83154-1.4849-0.67316-0.5544-1.9007-0.5544-1.4651 0-2.0789 0.49497-0.61372 0.47508-0.61372 1.1087 0 0.41569 0.25718 0.75237 0.25718 0.33667 0.81176 0.55439 0.31655 0.11873 1.8611 0.55434 2.2372 0.594 3.1282 0.97014 0.89092 0.37595 1.3859 1.1087 0.51478 0.73259 0.51478 1.8215 0 1.0494-0.61378 1.9997-0.61372 0.93054-1.7819 1.4453-1.1681 0.49495-2.6332 0.49495-2.4353 0-3.7222-1.0097-1.2671-1.0098-1.6235-2.9896zm21.225-0.29692 2.1779 0.27729q-0.51478 1.9007-1.9205 2.9698-1.3859 1.0494-3.5638 1.0494-2.7322 0-4.336-1.6829-1.6037-1.6829-1.6037-4.7319 0-3.1481 1.6037-4.8902 1.6235-1.7423 4.2171-1.7423 2.5145 0 4.0984 1.7027t1.5839 4.8112q0 0.17816-0.0191 0.55439h-9.3053q0.11873 2.0591 1.1682 3.148 1.0493 1.089 2.6134 1.089 1.1483 0 1.9601-0.59396 0.83154-0.61377 1.3265-1.9601zm-6.9495-3.4252h6.9692q-0.13841-1.5641-0.79198-2.3561-1.0097-1.2276-2.6332-1.2276-1.4453 0-2.4551 0.98997-0.98997 0.97013-1.089 2.5936zm11.544 7.4443v-12.493h1.9007v1.7819q1.3859-2.0591 3.9795-2.0591 1.1286 0 2.0789 0.4157 0.95036 0.39606 1.4057 1.0691 0.47508 0.65335 0.67316 1.5443 0.11873 0.59395 0.11873 2.0591v7.6818h-2.1185v-7.6028q0-1.2869-0.25718-1.9205-0.23755-0.65334-0.87115-1.0295-0.6336-0.37644-1.4849-0.37644-1.3463 0-2.3363 0.85137-0.97013 0.85137-0.97013 3.2668v6.8106zm17.78-1.9007 0.29693 1.8809q-0.89097 0.17816-1.6037 0.17816-1.1483 0-1.7819-0.35632-0.63356-0.37642-0.89093-0.95036-0.25718-0.59394-0.25718-2.5144v-7.1674h-1.5641v-1.6631h1.5641v-3.0887l2.0987-1.2671v4.3558h2.1383v1.6631h-2.1383v7.2862q0 0.91071 0.0991 1.1681 0.11873 0.25718 0.37643 0.41569 0.25766 0.15852 0.73255 0.15852 0.33668 0 0.93058-0.0991zm10.488-2.1185 2.1779 0.27728q-0.51473 1.9007-1.9205 2.9698-1.3859 1.0494-3.5638 1.0494-2.7322 0-4.336-1.6829-1.6037-1.6829-1.6037-4.7319 0-3.1481 1.6037-4.8902 1.6235-1.7423 4.2172-1.7423 2.5145 0 4.0984 1.7027 1.5839 1.7028 1.5839 4.8112 0 0.17816-0.0191 0.5544h-9.3053q0.11873 2.0591 1.1681 3.148 1.0493 1.089 2.6135 1.089 1.1483 0 1.9601-0.59394 0.83154-0.61379 1.3265-1.9601zm-6.9495-3.4252h6.9692q-0.13841-1.5641-0.79194-2.3561-1.0097-1.2276-2.6333-1.2276-1.4453 0-2.4551 0.98997-0.98992 0.97014-1.0889 2.5937zm11.524 7.4443v-12.493h1.9007v1.9007q0.73254-1.3265 1.3463-1.7423 0.61377-0.43534 1.3661-0.43534 1.0692 0 2.1779 0.69294l-0.7326 1.9601q-0.77215-0.45545-1.5641-0.45545-0.69294 0-1.2473 0.4157-0.53456 0.4157-0.77216 1.1483-0.3563 1.1286-0.3563 2.4749v6.5334z"/>
  <path d="m179.13 77.25 2.2769 0.57416q-0.71276 2.8114-2.5738 4.2964-1.8611 1.4651-4.5538 1.4651-2.7916 0-4.5339-1.1285-1.7423-1.1483-2.653-3.2866-0.91077-2.1581-0.91077-4.633 0-2.6926 1.0098-4.6923 1.0295-1.9997 2.9302-3.0292 1.9007-1.0493 4.1775-1.0493 2.5937 0 4.3558 1.3265 1.7621 1.3067 2.4551 3.6826l-2.2373 0.53456q-0.59396-1.8809-1.7423-2.7322-1.1484-0.87119-2.8708-0.87119-1.9799 0-3.3262 0.95036-1.3265 0.95036-1.8809 2.5739-0.53456 1.6037-0.53456 3.3064 0 2.1977 0.63356 3.841 0.65339 1.6235 1.9997 2.4353 1.3661 0.81176 2.9302 0.81176 1.9205 0 3.247-1.089 1.3266-1.1087 1.8017-3.2866zm3.7077-0.1978q0-3.4648 1.9403-5.1478 1.6037-1.3859 3.9202-1.3859 2.5739 0 4.1974 1.7027 1.6433 1.6829 1.6433 4.6527 0 2.4155-0.73259 3.8014-0.71273 1.3661-2.0987 2.1383-1.3662 0.75237-3.0095 0.75237-2.6134 0-4.237-1.6829-1.6235-1.6829-1.6235-4.8308zm2.1779 0q0 2.3956 1.0493 3.5836 1.0494 1.188 2.6333 1.188t2.6135-1.188q1.0493-1.2077 1.0493-3.6628 0-2.3165-1.0493-3.5044-1.0494-1.188-2.6135-1.188-1.5839 0-2.6333 1.188-1.0493 1.188-1.0493 3.5836zm11.762 6.2364v-12.493h1.9007v1.7819q1.3859-2.0591 3.9796-2.0591 1.1285 0 2.0789 0.41569 0.95036 0.39607 1.4057 1.0692 0.47509 0.65333 0.67317 1.5443 0.11873 0.59394 0.11873 2.059v7.6818h-2.1185v-7.6028q0-1.2869-0.25719-1.9205-0.23754-0.65333-0.87114-1.0295-0.6336-0.37644-1.4849-0.37644-1.3463 0-2.3363 0.85137-0.97014 0.85133-0.97014 3.2668v6.8107zm17.78-1.9007 0.29693 1.8809q-0.89097 0.17816-1.6037 0.17816-1.1484 0-1.7819-0.35631-0.63356-0.37643-0.89092-0.95036-0.25719-0.59395-0.25719-2.5144v-7.1674h-1.5641v-1.6631h1.5641v-3.0887l2.0987-1.2671v4.3558h2.1383v1.6631h-2.1383v7.2862q0 0.91075 0.0991 1.1681 0.11873 0.25718 0.37642 0.4157 0.25765 0.15851 0.73259 0.15851 0.33668 0 0.93053-0.0991zm10.092 0.35631q-1.1879 1.0097-2.2769 1.4255-1.0889 0.39606-2.3362 0.39606-2.0393 0-3.148-0.98997-1.1087-1.0097-1.1087-2.5738 0-0.93053 0.4157-1.6829 0.4157-0.75238 1.089-1.2077 0.67316-0.45544 1.5245-0.69298 0.63357-0.17816 1.8809-0.31657 2.5739-0.31704 3.7816-0.73255 0-0.4358 0-0.55439 0-1.2869-0.59395-1.8215-0.81176-0.71277-2.4155-0.71277-1.4849 0-2.1976 0.51478-0.71277 0.5148-1.0494 1.8611l-2.0789-0.29693q0.29693-1.3266 0.93053-2.1383 0.65339-0.81177 1.8611-1.2473 1.2275-0.45546 2.851-0.45546 1.6037 0 2.5937 0.37596 0.98997 0.37643 1.4651 0.95031 0.47507 0.57417 0.65338 1.4453 0.11873 0.53457 0.11873 1.9403v2.8312q0 2.95 0.11873 3.742 0.13841 0.77216 0.5544 1.4849h-2.2175q-0.33668-0.65333-0.41569-1.5443zm-0.17816-4.7121q-1.1483 0.45545-3.4648 0.79199-1.3067 0.17814-1.8413 0.41569-0.53456 0.23754-0.83159 0.69299-0.29693 0.45545-0.29693 1.0097 0 0.85132 0.63361 1.4255 0.65334 0.55439 1.8808 0.55439 1.2276 0 2.1779-0.53456 0.95032-0.5544 1.4057-1.4652 0.33667-0.73254 0.33667-2.1185zm5.1881-8.5529v-2.4155h2.1184v2.4155zm0 14.809v-12.493h2.1184v12.493zm5.2321 0v-12.493h1.9007v1.7819q1.3859-2.0591 3.9796-2.0591 1.1285 0 2.0789 0.41569 0.95036 0.39607 1.4057 1.0692 0.47509 0.65333 0.67316 1.5443 0.11873 0.59395 0.11873 2.059v7.6818h-2.1185v-7.6028q0-1.2869-0.25719-1.9205-0.23754-0.65335-0.87114-1.0295-0.6336-0.37643-1.4849-0.37643-1.3463 0-2.3363 0.85137-0.97014 0.85133-0.97014 3.2668v6.8106zm12.296-3.7222 2.0987-0.33668q0.17814 1.2671 0.97014 1.9403 0.81176 0.65338 2.2571 0.65338 1.4652 0 2.1581-0.59399 0.71277-0.59396 0.71277-1.3859 0-0.71277-0.61378-1.1286-0.43581-0.27728-2.1581-0.71277-2.3362-0.59394-3.247-1.0097-0.89097-0.43533-1.3662-1.1879-0.45544-0.77216-0.45544-1.6829 0-0.8316 0.37642-1.5443 0.39607-0.71277 1.0493-1.188 0.49502-0.35631 1.3463-0.61377 0.85137-0.25717 1.8215-0.25717 1.4849 0 2.5937 0.43532 1.1087 0.41571 1.6235 1.1484 0.53456 0.71277 0.73255 1.9205l-2.0591 0.27728q-0.13841-0.95031-0.83155-1.4849-0.67316-0.55439-1.9007-0.55439-1.4652 0-2.0789 0.49496-0.61377 0.47509-0.61377 1.1087 0 0.4157 0.25717 0.75238 0.25718 0.33668 0.81176 0.55434 0.31656 0.11873 1.8611 0.5544 2.2372 0.59394 3.1282 0.97014 0.89092 0.37594 1.3859 1.1087 0.51479 0.73256 0.51479 1.8215 0 1.0493-0.61379 1.9997-0.61372 0.93053-1.7819 1.4453-1.1681 0.49496-2.6332 0.49496-2.4353 0-3.7222-1.0098-1.2671-1.0097-1.6235-2.9896zm23.872 1.8215 0.29694 1.8809q-0.89093 0.17815-1.6037 0.17815-1.1483 0-1.7819-0.35631-0.63355-0.37643-0.89097-0.95036-0.25718-0.59394-0.25718-2.5144v-7.1674h-1.5641v-1.6631h1.5641v-3.0887l2.0987-1.2671v4.3558h2.1383v1.6631h-2.1383v7.2862q0 0.91075 0.0991 1.1681 0.11873 0.25718 0.37594 0.41571 0.25718 0.15852 0.73255 0.15852 0.33668 0 0.93053-0.0991zm1.935 1.9007v-17.225h2.1185v6.1771q1.4849-1.7225 3.742-1.7225 1.3859 0 2.3957 0.55434 1.0295 0.53456 1.4651 1.5047 0.45544 0.97014 0.45544 2.7916v7.9193h-2.1184v-7.9193q0-1.5839-0.69299-2.2967-0.69294-0.73256-1.9403-0.73256-0.95036 0-1.7819 0.49496-0.81176 0.47508-1.1681 1.3266-0.35632 0.83154-0.35632 2.2966v6.8308zm21.701-4.0192 2.1779 0.2773q-0.51478 1.9007-1.9205 2.9698-1.3859 1.0494-3.5638 1.0494-2.7322 0-4.336-1.6829-1.6037-1.6829-1.6037-4.7319 0-3.148 1.6037-4.8902 1.6235-1.7423 4.2172-1.7423 2.5145 0 4.0984 1.7027t1.5839 4.8112q0 0.17814-0.0191 0.55438h-9.3053q0.11873 2.059 1.1681 3.148 1.0493 1.089 2.6134 1.089 1.1483 0 1.9601-0.59399 0.83159-0.61373 1.3265-1.9601zm-6.9495-3.4252h6.9692q-0.13841-1.5641-0.79198-2.356-1.0098-1.2276-2.6333-1.2276-1.4453 0-2.4551 0.98997-0.98992 0.97014-1.0889 2.5936zm18.072 7.4443v-17.225h2.1185v17.225zm4.4996-6.2364q0-3.4648 1.9403-5.1479 1.6037-1.3859 3.9202-1.3859 2.5739 0 4.1974 1.7027 1.6434 1.6829 1.6434 4.6528 0 2.4154-0.7326 3.8014-0.71276 1.3661-2.0986 2.1383-1.3662 0.75237-3.0095 0.75237-2.6134 0-4.237-1.6829-1.6235-1.6829-1.6235-4.8308zm2.1779 0q0 2.3956 1.0493 3.5836t2.6332 1.188 2.6134-1.188q1.0493-1.2077 1.0493-3.6628 0-2.3165-1.0493-3.5044t-2.6134-1.1879q-1.5839 0-2.6332 1.1879-1.0493 1.188-1.0493 3.5836zm11.385 7.2661 2.0393 0.31657q0.13841 0.95036 0.7326 1.3859 0.77215 0.57417 2.1383 0.57417 1.4849 0 2.2769-0.59395 0.79198-0.57418 1.089-1.6235 0.15852-0.65338 0.13841-2.7323-1.3859 1.6433-3.445 1.6433-2.5738 0-3.9994-1.8611-1.4057-1.8611-1.4057-4.4547 0-1.7819 0.65333-3.2866 0.6534-1.5245 1.8809-2.3363 1.2275-0.83154 2.8708-0.83154 2.2175 0 3.643 1.7819v-1.5047h1.9601v10.79q0 2.9302-0.594 4.138-0.59395 1.2275-1.8809 1.9205-1.2869 0.71272-3.1678 0.71272-2.2373 0-3.6232-1.0097-1.3661-1.0098-1.3067-3.0292zm1.7423-7.5036q0 2.4748 0.97014 3.6034 0.98997 1.1285 2.4551 1.1285 1.4453 0 2.4353-1.1285 0.98996-1.1286 0.98996-3.5242 0-2.2966-1.0296-3.445-1.0097-1.1682-2.4353-1.1682-1.4057 0-2.3956 1.1483-0.98997 1.1286-0.98997 3.3856zm11.801-8.3355v-2.4155h2.1185v2.4155zm0 14.81v-12.493h2.1185v12.493zm13.39-4.5736 2.0789 0.2773q-0.33668 2.1383-1.7423 3.3658-1.4057 1.2077-3.4648 1.2077-2.5541 0-4.1181-1.6631-1.5443-1.6829-1.5443-4.8112 0-2.0194 0.65334-3.5242 0.67316-1.5245 2.0393-2.2768 1.3859-0.77217 2.9896-0.77217 2.0393 0 3.3262 1.0295 1.2869 1.0296 1.6631 2.9302l-2.0591 0.31657q-0.29693-1.2672-1.0494-1.9007-0.75238-0.63355-1.8017-0.63355-1.6037 0-2.6134 1.1483-0.98992 1.1484-0.98992 3.6232 0 2.5144 0.97014 3.6628 0.97014 1.1286 2.5144 1.1286 1.2473 0 2.0789-0.75237 0.83154-0.77215 1.0691-2.3561zm10.745 4.5736v-10.83h-1.8809v-1.6631h1.8809v-1.3266q0-1.2473 0.21791-1.8611 0.29693-0.83155 1.0691-1.3265 0.77216-0.51478 2.1581-0.51478 0.89093 0 1.9799 0.19778l-0.31656 1.8611q-0.65338-0.11873-1.2473-0.11873-0.97014 0-1.3662 0.4157-0.39606 0.39606-0.39606 1.5245v1.1484h2.4353v1.6631h-2.4353v10.83zm5.2614-6.2364q0-3.4648 1.9403-5.1479 1.6037-1.3859 3.9202-1.3859 2.5739 0 4.1974 1.7027 1.6433 1.6829 1.6433 4.6528 0 2.4154-0.7326 3.8014-0.71277 1.3661-2.0987 2.1383-1.3662 0.75237-3.0095 0.75237-2.6134 0-4.237-1.6829-1.6235-1.6829-1.6235-4.8308zm2.1779 0q0 2.3956 1.0493 3.5836 1.0494 1.188 2.6333 1.188t2.6134-1.188q1.0494-1.2077 1.0494-3.6628 0-2.3165-1.0494-3.5044-1.0493-1.1879-2.6134-1.1879-1.5839 0-2.6333 1.1879-1.0493 1.188-1.0493 3.5836zm11.742 6.2364v-12.493h1.9007v1.9007q0.7326-1.3266 1.3463-1.7423 0.61378-0.43534 1.3662-0.43534 1.0691 0 2.1779 0.69295l-0.73255 1.9601q-0.77216-0.45546-1.5641-0.45546-0.69294 0-1.2473 0.41571-0.53456 0.41569-0.77211 1.1483-0.35631 1.1285-0.35631 2.4748v6.5338z"/>
  <path d="m229.28 108.95q-1.188 1.0097-2.2768 1.4255-1.089 0.39607-2.3363 0.39607-2.0393 0-3.148-0.98997-1.1087-1.0097-1.1087-2.5738 0-0.93058 0.41569-1.6829 0.4157-0.75239 1.089-1.2077 0.67316-0.45546 1.5245-0.69299 0.63355-0.17816 1.8809-0.31657 2.5738-0.31704 3.7816-0.73254 0-0.43534 0-0.5544 0-1.2869-0.59395-1.8215-0.81176-0.71272-2.4154-0.71272-1.4849 0-2.1977 0.51475-0.71276 0.51478-1.0494 1.8611l-2.0789-0.29693q0.29693-1.3266 0.93054-2.1383 0.65339-0.81172 1.8611-1.2473 1.2276-0.45546 2.851-0.45546 1.6037 0 2.5937 0.37643 0.98996 0.37642 1.4652 0.95036 0.47508 0.57412 0.65333 1.4453 0.11873 0.53457 0.11873 1.9403v2.8312q0 2.95 0.11873 3.742 0.1384 0.77216 0.55434 1.4849h-2.2175q-0.33668-0.65338-0.4157-1.5443zm-0.17815-4.7121q-1.1483 0.45544-3.4648 0.79193-1.3067 0.17816-1.8413 0.4157-0.53456 0.23754-0.83154 0.69294-0.29693 0.45544-0.29693 1.0098 0 0.85132 0.63356 1.4255 0.65333 0.5544 1.8809 0.5544 1.2275 0 2.1779-0.53462 0.95036-0.55434 1.4057-1.4651 0.33667-0.73255 0.33667-2.1185zm5.1684 11.048v-17.285h1.9403v1.6235q0.67316-0.95031 1.5245-1.4255 0.87114-0.47508 2.0789-0.47508 1.6037 0 2.8312 0.83154 1.2276 0.81176 1.8413 2.3165 0.6336 1.5047 0.6336 3.2866 0 1.9205-0.69299 3.4648-0.69295 1.5245-1.9997 2.3363-1.3068 0.81176-2.752 0.81176-1.0692 0-1.9205-0.43581-0.83158-0.45545-1.3661-1.1286v6.0784zm1.9205-10.969q0 2.4154 0.97014 3.5638 0.98997 1.1483 2.3759 1.1483 1.4057 0 2.3956-1.1879 1.0097-1.188 1.0097-3.7024 0-2.3758-0.9899-3.5638-0.97014-1.188-2.3363-1.188-1.3463 0-2.3956 1.2672-1.0296 1.2671-1.0296 3.6628zm11.227 10.969v-17.285h1.9403v1.6235q0.67316-0.95031 1.5245-1.4255 0.87115-0.47508 2.0789-0.47508 1.6037 0 2.8312 0.83154 1.2276 0.81176 1.8413 2.3165 0.63355 1.5047 0.63355 3.2866 0 1.9205-0.69294 3.4648-0.69295 1.5245-1.9997 2.3363-1.3067 0.81176-2.752 0.81176-1.0691 0-1.9205-0.43581-0.83154-0.45545-1.3661-1.1286v6.0784zm1.9205-10.969q0 2.4154 0.97014 3.5638 0.9899 1.1483 2.3758 1.1483 1.4058 0 2.3957-1.1879 1.0098-1.188 1.0098-3.7024 0-2.3758-0.98997-3.5638-0.97013-1.188-2.3362-1.188-1.3463 0-2.3957 1.2672-1.0295 1.2671-1.0295 3.6628zm11.187 6.177v-17.225h2.1185v17.225zm5.3112-14.809v-2.4154h2.1185v2.4154zm0 14.809v-12.493h2.1185v12.493zm13.39-4.5735 2.0789 0.27729q-0.33668 2.1383-1.7423 3.3658-1.4057 1.2077-3.4648 1.2077-2.5541 0-4.1181-1.6631-1.5443-1.6829-1.5443-4.8112 0-2.0194 0.65333-3.5242 0.67316-1.5245 2.0393-2.2769 1.3859-0.77215 2.9896-0.77215 2.0393 0 3.3263 1.0295 1.2869 1.0296 1.6631 2.9302l-2.0591 0.31703q-0.29693-1.2672-1.0493-1.9007-0.75237-0.63355-1.8017-0.63355-1.6037 0-2.6134 1.1484-0.98997 1.1483-0.98997 3.6232 0 2.5144 0.97019 3.6628 0.97014 1.1285 2.5144 1.1285 1.2473 0 2.0789-0.75234 0.83154-0.77215 1.0691-2.3561zm11.82 3.0292q-1.1879 1.0097-2.2769 1.4255-1.089 0.39607-2.3363 0.39607-2.0393 0-3.148-0.98997-1.1087-1.0097-1.1087-2.5738 0-0.93058 0.41569-1.6829 0.4157-0.75239 1.089-1.2077 0.67316-0.45545 1.5245-0.69298 0.6336-0.17816 1.8809-0.31657 2.5739-0.31705 3.7816-0.73255 0-0.43534 0-0.5544 0-1.2869-0.59394-1.8215-0.81176-0.71272-2.4155-0.71272-1.4849 0-2.1977 0.51473-0.71277 0.5148-1.0494 1.8611l-2.0789-0.29693q0.29693-1.3266 0.93053-2.1383 0.65338-0.81171 1.8611-1.2473 1.2275-0.45544 2.851-0.45544 1.6037 0 2.5937 0.37643 0.98997 0.37642 1.4651 0.95036 0.47508 0.57412 0.65338 1.4453 0.11873 0.53458 0.11873 1.9403v2.8312q0 2.95 0.11873 3.742 0.13841 0.77215 0.55439 1.4849h-2.2175q-0.33668-0.65338-0.41569-1.5443zm-0.17815-4.7122q-1.1483 0.45545-3.4648 0.79194-1.3067 0.17815-1.8413 0.4157-0.53458 0.23753-0.83154 0.69294-0.29693 0.45544-0.29693 1.0098 0 0.85132 0.63355 1.4255 0.65338 0.5544 1.8809 0.5544 1.2275 0 2.1779-0.53462 0.95036-0.55434 1.4057-1.4651 0.33668-0.73254 0.33668-2.1185zm9.8015 4.3557 0.29693 1.8809q-0.89093 0.17816-1.6037 0.17816-1.1484 0-1.7819-0.35632-0.63356-0.37642-0.89093-0.95036-0.25718-0.59394-0.25718-2.5144v-7.1674h-1.5641v-1.6631h1.5641v-3.0886l2.0987-1.2672v4.3558h2.1383v1.6631h-2.1383v7.2862q0 0.91075 0.0991 1.1682 0.11873 0.25717 0.37643 0.4157 0.25718 0.15852 0.73255 0.15852 0.33668 0 0.93058-0.0991zm1.9547-12.909v-2.4154h2.1185v2.4154zm0 14.81v-12.493h2.1185v12.493zm4.4403-6.2364q0-3.4648 1.9403-5.1479 1.6037-1.3859 3.9202-1.3859 2.5738 0 4.1974 1.7027 1.6433 1.6829 1.6433 4.6528 0 2.4154-0.73254 3.8014-0.71277 1.3661-2.0987 2.1383-1.3661 0.75237-3.0094 0.75237-2.6135 0-4.237-1.6829t-1.6235-4.8308zm2.1779 0q0 2.3957 1.0493 3.5836t2.6333 1.1879q1.5839 0 2.6134-1.1879 1.0493-1.2077 1.0493-3.6628 0-2.3165-1.0493-3.5044t-2.6134-1.1879q-1.5839 0-2.6333 1.1879-1.0493 1.1879-1.0493 3.5836zm11.761 6.2364v-12.493h1.9007v1.7819q1.3859-2.0591 3.9796-2.0591 1.1285 0 2.0789 0.41571 0.95036 0.39605 1.4057 1.0692 0.47508 0.65334 0.67316 1.5443 0.11877 0.59395 0.11877 2.0591v7.6818h-2.1185v-7.6028q0-1.2869-0.25717-1.9205-0.23755-0.65333-0.87115-1.0295-0.63355-0.37595-1.4849-0.37595-1.3463 0-2.3363 0.85136-0.97014 0.85132-0.97014 3.2668v6.8107z"/>
  <path d="m1.26 293.34c0-18.861 42.09-34.15 94.011-34.15s94.011 15.289 94.011 34.15v136.6c0 18.861-42.09 34.15-94.011 34.15s-94.011-15.289-94.011-34.15z" fill="#cfe2f3"/>
 </g>
 <path d="m189.29 293.34c0 18.861-42.09 34.15-94.011 34.15s-94.011-15.289-94.011-34.15" fill="none" stroke="#000" stroke-linejoin="round" stroke-miterlimit="10" stroke-width="2.5343"/>
 <path d="m1.26 293.34c0-18.861 42.09-34.15 94.011-34.15s94.011 15.289 94.011 34.15v136.6c0 18.861-42.09 34.15-94.011 34.15s-94.011-15.289-94.011-34.15z" fill="none" stroke="#000" stroke-linejoin="round" stroke-miterlimit="10" stroke-width="2.5343"/>
 <g stroke-width="4.7892">
  <path d="m64.86 359.33v-17.225h3.445l4.0785 12.196q0.55439 1.7027 0.81176 2.5541 0.29692-0.95036 0.93058-2.7719l4.1181-11.978h3.0688v17.225h-2.1977v-14.434l-5.009 14.434h-2.0591l-4.9893-14.671v14.671zm18.702-6.2364q0-3.4648 1.9403-5.1479 1.6037-1.3859 3.9202-1.3859 2.5738 0 4.1974 1.7027 1.6433 1.6829 1.6433 4.6528 0 2.4154-0.73255 3.8014-0.71277 1.3661-2.0987 2.1382-1.3661 0.75238-3.0094 0.75238-2.6134 0-4.237-1.6829-1.6235-1.6829-1.6235-4.8308zm2.1779 0q0 2.3956 1.0493 3.5836 1.0494 1.1879 2.6333 1.1879t2.6134-1.1879q1.0494-1.2077 1.0494-3.6628 0-2.3165-1.0494-3.5044-1.0493-1.188-2.6134-1.188-1.5839 0-2.6333 1.188-1.0493 1.1879-1.0493 3.5836zm19.859 6.2364v-1.5839q-1.188 1.8611-3.4846 1.8611-1.4849 0-2.752-0.81176-1.2473-0.83153-1.9403-2.2966-0.67316-1.4849-0.67316-3.4054 0-1.8611 0.61377-3.3856 0.6336-1.5245 1.8611-2.3362 1.2473-0.81176 2.7916-0.81176 1.1286 0 1.9997 0.47507 0.89093 0.47509 1.4453 1.2473v-6.177h2.0986v17.225zm-6.6919-6.2364q0 2.3956 1.0098 3.5836 1.0296 1.1879 2.3957 1.1879 1.3859 0 2.3561-1.1286 0.97013-1.1285 0.97013-3.4648 0-2.554-0.98991-3.7419-0.98997-1.2078-2.4353-1.2078-1.4057 0-2.3561 1.1483t-0.95036 3.6232zm20.295 2.2175 2.1779 0.2773q-0.51478 1.9007-1.9205 2.9698-1.3859 1.0494-3.5638 1.0494-2.7323 0-4.336-1.6829t-1.6037-4.7319q0-3.148 1.6037-4.8902 1.6235-1.7423 4.2172-1.7423 2.5144 0 4.0984 1.7027 1.5839 1.7027 1.5839 4.8112 0 0.17816-0.0191 0.55439h-9.3053q0.11873 2.0591 1.1681 3.148 1.0493 1.089 2.6134 1.089 1.1484 0 1.9601-0.594 0.83154-0.61373 1.3265-1.9601zm-6.9495-3.4252h6.9692q-0.13841-1.5641-0.79194-2.3561-1.0098-1.2276-2.6333-1.2276-1.4453 0-2.4551 0.98996-0.98996 0.97014-1.089 2.5937zm11.504 7.4443v-17.225h2.1185v17.225z"/>
  <path d="m49.11 386.53v-17.225h6.4744q1.9601 0 3.148 0.51478 1.2077 0.51479 1.8809 1.6037 0.67317 1.089 0.67317 2.2769 0 1.1087-0.59395 2.0987-0.59395 0.97014-1.8215 1.5641 1.5642 0.45544 2.3957 1.5641 0.85137 1.1087 0.85137 2.6135 0 1.2077-0.51479 2.257-0.49495 1.0296-1.2473 1.6037-0.75237 0.55435-1.9007 0.85136-1.1286 0.2773-2.7719 0.2773zm2.2769-9.9983h3.7222q1.5245 0 2.1779-0.19779 0.87114-0.25717 1.3067-0.85132 0.45544-0.594 0.45544-1.5048 0-0.85132-0.4157-1.5047-0.41569-0.65338-1.1879-0.89097-0.75233-0.25717-2.6134-0.25717h-3.445zm0 7.9591h4.2964q1.1087 0 1.5443-0.0791 0.79198-0.13841 1.3266-0.45545 0.53456-0.33668 0.87115-0.97018 0.33667-0.63357 0.33667-1.4453 0-0.97019-0.495-1.683-0.49497-0.71272-1.3661-0.98992-0.87115-0.29692-2.5144-0.29692h-3.9994zm21.489 2.0393v-1.8413q-1.4453 2.1185-3.9598 2.1185-1.0889 0-2.059-0.4157-0.95036-0.43533-1.4255-1.0691-0.45546-0.63355-0.65335-1.5641-0.11873-0.63356-0.11873-1.9799v-7.7412h2.1185v6.9294q0 1.6631 0.11873 2.2373 0.19779 0.83154 0.85136 1.3067 0.6534 0.47509 1.6037 0.47509 0.95036 0 1.7819-0.47509 0.83154-0.49495 1.1681-1.3265 0.35632-0.85138 0.35632-2.4551v-6.6919h2.1185v12.493zm4.1191-3.7222 2.0987-0.33668q0.17815 1.2671 0.97014 1.9403 0.81176 0.65339 2.257 0.65339 1.4652 0 2.1581-0.594 0.71277-0.59395 0.71277-1.3859 0-0.71278-0.61378-1.1286-0.43581-0.27729-2.158-0.71277-2.3363-0.59395-3.247-1.0097-0.89092-0.43534-1.3661-1.1879-0.45544-0.77215-0.45544-1.6829 0-0.83159 0.37642-1.5443 0.39607-0.71278 1.0494-1.188 0.49497-0.35632 1.3463-0.61377 0.85132-0.25719 1.8215-0.25719 1.4849 0 2.5937 0.43581 1.1087 0.4157 1.6235 1.1484 0.53462 0.71273 0.73259 1.9205l-2.0591 0.27729q-0.13841-0.95031-0.83154-1.4849-0.67317-0.55434-1.9007-0.55434-1.4651 0-2.0789 0.49495-0.61377 0.47509-0.61377 1.1087 0 0.41571 0.25717 0.75239 0.25765 0.33667 0.81177 0.55438 0.31655 0.11873 1.8611 0.55434 2.2372 0.59396 3.1282 0.97014 0.89092 0.37643 1.3859 1.1087 0.51473 0.7326 0.51473 1.8215 0 1.0494-0.61373 1.9997-0.61378 0.93053-1.7819 1.4453-1.1682 0.49497-2.6333 0.49497-2.4353 0-3.7222-1.0098-1.2672-1.0097-1.6235-2.9896zm12.691-11.087v-2.4155h2.1185v2.4155zm0 14.809v-12.493h2.1185v12.493zm5.2322 0v-12.493h1.9007v1.7819q1.3859-2.0591 3.9796-2.0591 1.1285 0 2.0789 0.41569 0.95036 0.39607 1.4057 1.0691 0.47507 0.65335 0.67316 1.5443 0.11873 0.59395 0.11873 2.0591v7.6818h-2.1185v-7.6028q0-1.2869-0.25717-1.9205-0.23755-0.65333-0.87116-1.0295-0.63355-0.37596-1.4849-0.37596-1.3463 0-2.3362 0.85137-0.97014 0.85137-0.97014 3.2668v6.8106zm21.701-4.0192 2.1779 0.27729q-0.51473 1.9007-1.9205 2.9698-1.3859 1.0494-3.5638 1.0494-2.7322 0-4.336-1.6829-1.6037-1.6829-1.6037-4.7319 0-3.1481 1.6037-4.8902 1.6235-1.7423 4.2172-1.7423 2.5144 0 4.0984 1.7027 1.5839 1.7027 1.5839 4.8112 0 0.17816-0.0191 0.55439h-9.3053q0.11873 2.0591 1.1681 3.148 1.0493 1.089 2.6134 1.089 1.1484 0 1.9601-0.594 0.83155-0.61373 1.3266-1.9601zm-6.9495-3.4252h6.9692q-0.13839-1.5641-0.79198-2.3561-1.0097-1.2275-2.6333-1.2275-1.4453 0-2.4551 0.98997-0.98992 0.97014-1.0889 2.5937zm10.692 3.7222 2.0987-0.33669q0.17816 1.2671 0.97014 1.9403 0.81176 0.65338 2.2571 0.65338 1.4651 0 2.1581-0.59399 0.71276-0.59395 0.71276-1.3859 0-0.71278-0.61377-1.1286-0.43582-0.27729-2.1581-0.71276-2.3362-0.59396-3.247-1.0098-0.89098-0.43534-1.3662-1.1879-0.45545-0.77216-0.45545-1.6829 0-0.83159 0.37643-1.5443 0.39605-0.71277 1.0493-1.188 0.49501-0.35631 1.3463-0.61377 0.85137-0.25718 1.8215-0.25718 1.4849 0 2.5937 0.4358 1.1087 0.41571 1.6235 1.1484 0.53456 0.71272 0.73254 1.9205l-2.0591 0.27729q-0.13841-0.95031-0.83154-1.4849-0.67316-0.55434-1.9007-0.55434-1.4652 0-2.0789 0.49497-0.61373 0.47507-0.61373 1.1087 0 0.41571 0.25717 0.75239 0.25718 0.33667 0.81176 0.55439 0.31657 0.11873 1.8611 0.55434 2.2373 0.59395 3.1283 0.97014 0.89092 0.37643 1.3859 1.1087 0.51478 0.7326 0.51478 1.8215 0 1.0494-0.61378 1.9997-0.61378 0.93053-1.7819 1.4453-1.1681 0.49497-2.6333 0.49497-2.4352 0-3.7222-1.0098-1.2671-1.0097-1.6235-2.9896zm11.82 0 2.0987-0.33669q0.17815 1.2671 0.97013 1.9403 0.81176 0.65338 2.2571 0.65338 1.4651 0 2.1581-0.59399 0.71278-0.59395 0.71278-1.3859 0-0.71278-0.61379-1.1286-0.43581-0.27729-2.1581-0.71276-2.3363-0.59396-3.247-1.0098-0.89092-0.43534-1.3661-1.1879-0.45545-0.77216-0.45545-1.6829 0-0.83159 0.37595-1.5443 0.39606-0.71277 1.0493-1.188 0.49497-0.35631 1.3463-0.61377 0.85137-0.25718 1.8215-0.25718 1.4849 0 2.5937 0.4358 1.1087 0.41571 1.6235 1.1484 0.53456 0.71272 0.73254 1.9205l-2.0591 0.27729q-0.13841-0.95031-0.83154-1.4849-0.67316-0.55434-1.9007-0.55434-1.4651 0-2.0789 0.49497-0.61377 0.47507-0.61377 1.1087 0 0.41571 0.25766 0.75239 0.25717 0.33667 0.81176 0.55439 0.31655 0.11873 1.8611 0.55434 2.2373 0.59395 3.1282 0.97014 0.89097 0.37643 1.3859 1.1087 0.51478 0.7326 0.51478 1.8215 0 1.0494-0.61378 1.9997-0.61377 0.93053-1.7819 1.4453-1.1681 0.49497-2.6333 0.49497-2.4352 0-3.7222-1.0098-1.2671-1.0097-1.6235-2.9896z"/>
  <path d="m56.39 405.31q0-4.2964 2.2967-6.712 2.3165-2.4352 5.9596-2.4352 2.3758 0 4.2963 1.1483 1.9205 1.1285 2.9104 3.1678 1.0097 2.0393 1.0097 4.633 0 2.6134-1.0691 4.6923-1.0494 2.0591-2.9896 3.1282-1.9403 1.0691-4.1776 1.0691-2.4352 0-4.3557-1.1681-1.9007-1.1879-2.8907-3.2074-0.98991-2.0393-0.98991-4.3162zm2.3561 0.0383q0 3.1084 1.6631 4.9103 1.6829 1.7819 4.1974 1.7819 2.5738 0 4.237-1.8017 1.6631-1.8215 1.6631-5.1479 0-2.0987-0.71272-3.6628-0.69298-1.5641-2.0789-2.4353-1.3661-0.87114-3.0688-0.87114-2.4155 0-4.1578 1.6631t-1.7423 5.5636zm18.408 8.3552h-1.9601v-17.225h2.0987v6.1378q1.3463-1.683 3.4252-1.683 1.1483 0 2.1779 0.47508 1.0296 0.45545 1.6829 1.3068 0.67316 0.83154 1.0494 2.0194 0.37594 1.1879 0.37594 2.5343 0 3.2074-1.5839 4.9697-1.5839 1.7423-3.8014 1.7423t-3.4648-1.8414zm-0.0191-6.3356q0 2.2373 0.594 3.247 1.0097 1.6235 2.7124 1.6235 1.3859 0 2.3957-1.1879 1.0098-1.2077 1.0098-3.6034 0-2.4353-0.97014-3.6034-0.97019-1.1681-2.3363-1.1681-1.3859 0-2.3957 1.2077t-1.0098 3.4846zm11.207-8.4342v-2.4551h2.0987v2.4551zm-2.6926 19.621 0.39607-1.8017q0.63355 0.15851 1.0097 0.15851 0.65334 0 0.97014-0.43533 0.31657-0.4157 0.31657-2.1383v-13.127h2.0987v13.166q0 2.3165-0.59394 3.2272-0.75238 1.1681-2.5343 1.1681-0.85137 0-1.6631-0.21791zm16.498-8.87 2.1779 0.27729q-0.51478 1.9007-1.9205 2.9699-1.3859 1.0494-3.5638 1.0494-2.7323 0-4.336-1.6829t-1.6037-4.732q0-3.148 1.6037-4.8902 1.6235-1.7423 4.2172-1.7423 2.5145 0 4.0984 1.7027t1.5839 4.8112q0 0.17816-0.0191 0.55439h-9.3053q0.11873 2.059 1.1681 3.148 1.0494 1.089 2.6134 1.089 1.1484 0 1.9601-0.59401 0.83154-0.61377 1.3265-1.9601zm-6.9495-3.4252h6.9692q-0.13839-1.5641-0.79193-2.3561-1.0097-1.2275-2.6333-1.2275-1.4453 0-2.4551 0.98992-0.98992 0.97019-1.089 2.5937zm19.701 2.8709 2.0789 0.27728q-0.33668 2.1383-1.7423 3.3658-1.4057 1.2077-3.4648 1.2077-2.554 0-4.1181-1.6631-1.5443-1.6829-1.5443-4.8112 0-2.0195 0.65334-3.5242 0.67316-1.5245 2.0393-2.2769 1.3859-0.7722 2.9896-0.7722 2.0393 0 3.3262 1.0296 1.2869 1.0295 1.6631 2.9302l-2.0591 0.31656q-0.29693-1.2671-1.0493-1.9007t-1.8017-0.63356q-1.6037 0-2.6134 1.1484-0.98997 1.1483-0.98997 3.6232 0 2.5144 0.97019 3.6628 0.97014 1.1286 2.5144 1.1286 1.2473 0 2.0789-0.75239 0.83154-0.77215 1.0691-2.3561zm8.2958 2.6729 0.29692 1.8808q-0.89096 0.17815-1.6037 0.17815-1.1484 0-1.7819-0.35631-0.63355-0.37642-0.89093-0.95036-0.25765-0.59395-0.25765-2.5144v-7.1674h-1.5641v-1.6631h1.5641v-3.0886l2.0987-1.2671v4.3557h2.1383v1.6631h-2.1383v7.2862q0 0.91076 0.0991 1.1682 0.11873 0.25717 0.37594 0.41569 0.25766 0.15852 0.73256 0.15852 0.33667 0 0.93058-0.0991zm1.0836-1.8215 2.0987-0.33668q0.17816 1.2671 0.97019 1.9403 0.81176 0.65338 2.257 0.65338 1.4651 0 2.1581-0.59399 0.71278-0.59395 0.71278-1.3859 0-0.71273-0.61379-1.1285-0.4358-0.27729-2.158-0.71276-2.3363-0.59396-3.247-1.0098-0.89097-0.43534-1.3661-1.188-0.45545-0.77215-0.45545-1.6829 0-0.83154 0.37595-1.5443 0.39606-0.71278 1.0493-1.1879 0.49497-0.35631 1.3463-0.61377 0.85132-0.25766 1.8215-0.25766 1.4849 0 2.5936 0.43581 1.1088 0.4157 1.6235 1.1483 0.53457 0.71277 0.73261 1.9205l-2.0591 0.2773q-0.13841-0.95036-0.83154-1.4849-0.67316-0.55434-1.9007-0.55434-1.4651 0-2.0789 0.49495-0.61377 0.47509-0.61377 1.1087 0 0.4157 0.25718 0.75237 0.25717 0.33668 0.81176 0.55435 0.31655 0.11873 1.8611 0.55439 2.2372 0.59395 3.1282 0.97014 0.89093 0.37643 1.3859 1.1087 0.51473 0.73255 0.51473 1.8215 0 1.0494-0.61373 1.9997-0.61378 0.93058-1.7819 1.4453-1.1682 0.495-2.6333 0.495-2.4353 0-3.7222-1.0097-1.2672-1.0098-1.6235-2.9896z"/>
  <path d="m342.01 268.58h256.72v180.17h-256.72z" fill="#cfe2f3"/>
 </g>
 <path d="m374.1 268.58v180.17m192.54-180.17v180.17" fill="none" stroke="#000" stroke-linejoin="round" stroke-miterlimit="10" stroke-width="2.5343"/>
 <path d="m342.01 268.58h256.72v180.17h-256.72z" fill="none" stroke="#000" stroke-linejoin="round" stroke-miterlimit="10" stroke-width="2.5343"/>
 <g stroke-width="4.7892">
  <path d="m451.54 325.71-6.6919-17.225h2.4748l4.4746 12.513q0.55439 1.5047 0.91075 2.8114 0.39606-1.4057 0.93053-2.8114l4.6528-12.513h2.3363l-6.7513 17.225zm10.58-14.809v-2.4154h2.1185v2.4154zm0 14.809v-12.493h2.1185v12.493zm13.786-4.0191 2.1779 0.27728q-0.51479 1.9007-1.9205 2.9698-1.3859 1.0494-3.5638 1.0494-2.7323 0-4.336-1.6829t-1.6037-4.7319q0-3.1481 1.6037-4.8902 1.6235-1.7423 4.2172-1.7423 2.5144 0 4.0984 1.7027 1.5839 1.7027 1.5839 4.8112 0 0.17816-0.0192 0.5544h-9.3053q0.11877 2.0591 1.1682 3.148 1.0494 1.089 2.6134 1.089 1.1483 0 1.9601-0.59395 0.83154-0.61379 1.3265-1.9601zm-6.9495-3.4252h6.9692q-0.13841-1.5641-0.79194-2.3561-1.0097-1.2276-2.6333-1.2276-1.4453 0-2.4551 0.98997-0.98996 0.97014-1.089 2.5937zm13.86 7.4443-3.8212-12.493h2.1779l1.9799 7.2067 0.75237 2.6927q0.0383-0.1978 0.63356-2.5738l1.9997-7.3255h2.1779l1.8611 7.2465 0.61378 2.3957 0.73255-2.4155 2.1383-7.2268h2.0591l-3.9004 12.493h-2.1977l-1.9997-7.484-0.47509-2.1185-2.5343 9.6022z"/>
  <path d="m401.4 335.67h2.2769v9.9389q0 2.6134-0.594 4.138-0.57417 1.5245-2.1185 2.4947-1.5245 0.95036-4.0192 0.95036-2.4155 0-3.9598-0.83158-1.5443-0.83154-2.1976-2.4155-0.65338-1.5839-0.65338-4.336v-9.9389h2.2769v9.9389q0 2.2373 0.4157 3.3064t1.4255 1.6433q1.0295 0.57417 2.4947 0.57417 2.5144 0 3.5836-1.1286 1.0691-1.1483 1.0691-4.3953zm6.143 17.225v-17.225h2.2966v17.225zm25.055-6.0386 2.2769 0.57417q-0.71272 2.8114-2.5738 4.2963-1.8611 1.4652-4.5538 1.4652-2.7916 0-4.5339-1.1286-1.7423-1.1484-2.653-3.2866-0.91075-2.1581-0.91075-4.6329 0-2.6926 1.0097-4.6924 1.0295-1.9997 2.9302-3.0292 1.9007-1.0494 4.1776-1.0494 2.5937 0 4.3557 1.3266 1.7621 1.3067 2.4551 3.6826l-2.2373 0.53456q-0.594-1.8808-1.7423-2.7322-1.1483-0.87115-2.8709-0.87115-1.9799 0-3.3262 0.95031-1.3265 0.95036-1.8809 2.5739-0.53456 1.6037-0.53456 3.3064 0 2.1976 0.63356 3.841 0.65334 1.6235 1.9997 2.4353 1.3662 0.81176 2.9302 0.81176 1.9205 0 3.247-1.089 1.3265-1.1087 1.8017-3.2866zm3.7077-0.19779q0-3.4648 1.9403-5.1479 1.6037-1.3859 3.9202-1.3859 2.5739 0 4.1974 1.7027 1.6433 1.683 1.6433 4.6528 0 2.4155-0.7326 3.8014-0.71272 1.3661-2.0987 2.1383-1.3662 0.75232-3.0095 0.75232-2.6134 0-4.237-1.6829-1.6235-1.6829-1.6235-4.8308zm2.1779 0q0 2.3957 1.0494 3.5836 1.0493 1.188 2.6332 1.188t2.6135-1.188q1.0493-1.2077 1.0493-3.6628 0-2.3165-1.0493-3.5044-1.0494-1.1879-2.6135-1.1879-1.5839 0-2.6332 1.1879-1.0494 1.188-1.0494 3.5836zm11.761 6.2364v-12.493h1.9007v1.7621q0.57412-0.91075 1.5443-1.4652 0.98992-0.57417 2.2373-0.57417 1.3859 0 2.2769 0.57417 0.89097 0.57418 1.2473 1.6235 1.4849-2.1977 3.8608-2.1977 1.8611 0 2.851 1.0295 1.0098 1.0296 1.0098 3.1678v8.5731h-2.1185v-7.86q0-1.2671-0.19779-1.8215-0.19779-0.57418-0.75237-0.91075-0.53457-0.33668-1.2671-0.33668-1.3067 0-2.1779 0.87119-0.87115 0.87115-0.87115 2.8114v7.2465h-2.1185v-8.1176q0-1.4058-0.51474-2.0987-0.51479-0.71276-1.7027-0.71276-0.89093 0-1.6631 0.47507-0.75238 0.45546-1.089 1.3662-0.33668 0.91071-0.33668 2.6134v6.4744zm19.692 4.7911v-17.285h1.9403v1.6235q0.67317-0.95036 1.5245-1.4255 0.87114-0.47509 2.0789-0.47509 1.6037 0 2.8312 0.83154 1.2276 0.81176 1.8413 2.3165 0.63356 1.5047 0.63356 3.2866 0 1.9205-0.69299 3.4648-0.69294 1.5245-1.9997 2.3362-1.3067 0.81176-2.752 0.81176-1.0692 0-1.9205-0.43534-0.83154-0.45544-1.3662-1.1285v6.0784zm1.9204-10.969q0 2.4155 0.97018 3.5638 0.98992 1.1484 2.3758 1.1484 1.4057 0 2.3957-1.188 1.0097-1.1879 1.0097-3.7024 0-2.3758-0.98996-3.5638-0.97014-1.1879-2.3362-1.1879-1.3463 0-2.3957 1.2671-1.0296 1.2671-1.0296 3.6628zm10.435-0.0594q0-3.4648 1.9403-5.1479 1.6037-1.3859 3.9202-1.3859 2.5739 0 4.1974 1.7027 1.6433 1.6829 1.6433 4.6528 0 2.4154-0.73255 3.8014-0.71277 1.3661-2.0987 2.1383-1.3661 0.75237-3.0095 0.75237-2.6134 0-4.237-1.6829-1.6235-1.6829-1.6235-4.8308zm2.1779 0q0 2.3957 1.0494 3.5836 1.0493 1.188 2.6332 1.188t2.6135-1.188q1.0494-1.2077 1.0494-3.6628 0-2.3165-1.0494-3.5044-1.0494-1.188-2.6135-1.188-1.5839 0-2.6332 1.188-1.0494 1.1879-1.0494 3.5836zm11.761 6.2364v-12.493h1.9007v1.7819q1.3859-2.0591 3.9796-2.0591 1.1286 0 2.0789 0.41571 0.95036 0.39605 1.4058 1.0691 0.47508 0.65339 0.67316 1.5444 0.11877 0.59395 0.11877 2.059v7.6818h-2.1185v-7.6028q0-1.2869-0.25766-1.9205-0.23754-0.65334-0.87114-1.0295-0.63356-0.37642-1.4849-0.37642-1.3463 0-2.3362 0.85132-0.97014 0.85137-0.97014 3.2668v6.8106zm21.701-4.0192 2.1779 0.27729q-0.51479 1.9007-1.9205 2.9698-1.3859 1.0494-3.5638 1.0494-2.7323 0-4.336-1.6829t-1.6037-4.732q0-3.148 1.6037-4.8902 1.6235-1.7423 4.2172-1.7423 2.5144 0 4.0984 1.7027 1.5839 1.7027 1.5839 4.8112 0 0.17816-0.0192 0.55439h-9.3053q0.11877 2.059 1.1681 3.148 1.0494 1.089 2.6134 1.089 1.1484 0 1.9601-0.594 0.83158-0.61377 1.3265-1.9601zm-6.9495-3.4252h6.9692q-0.13841-1.5641-0.79198-2.3561-1.0098-1.2275-2.6333-1.2275-1.4453 0-2.4551 0.98992-0.98992 0.97019-1.0889 2.5937zm11.544 7.4442v-12.493h1.9007v1.7819q1.3859-2.0591 3.9796-2.0591 1.1286 0 2.0789 0.41569 0.95031 0.39607 1.4057 1.0691 0.47509 0.65339 0.67316 1.5444 0.11877 0.59395 0.11877 2.059v7.6818h-2.1185v-7.6028q0-1.2869-0.25718-1.9205-0.23754-0.65333-0.87119-1.0295-0.63356-0.37642-1.4849-0.37642-1.3463 0-2.3363 0.85132-0.97014 0.85136-0.97014 3.2668v6.8106zm17.78-1.9007 0.29692 1.8808q-0.89092 0.17816-1.6037 0.17816-1.1483 0-1.7819-0.35632-0.63356-0.37594-0.89097-0.95036-0.25718-0.59395-0.25718-2.5144v-7.1674h-1.5641v-1.6631h1.5641v-3.0886l2.0987-1.2671v4.3557h2.1383v1.6631h-2.1383v7.2862q0 0.91075 0.0991 1.1682 0.11877 0.25717 0.37595 0.41569t0.73255 0.15852q0.33667 0 0.93058-0.0991zm1.0836-1.8215 2.0987-0.33668q0.17816 1.2671 0.97014 1.9403 0.81176 0.65339 2.2571 0.65339 1.4651 0 2.1581-0.59401 0.71278-0.59395 0.71278-1.3859 0-0.71273-0.61378-1.1285-0.43534-0.2773-2.1581-0.71277-2.3363-0.59396-3.247-1.0098-0.89093-0.43581-1.3661-1.188-0.45545-0.77215-0.45545-1.6829 0-0.83154 0.37643-1.5443 0.39606-0.71278 1.0493-1.1879 0.49501-0.35632 1.3463-0.61378 0.85137-0.25766 1.8215-0.25766 1.4849 0 2.5937 0.43581 1.1087 0.4157 1.6235 1.1483 0.53456 0.71276 0.73254 1.9205l-2.0591 0.27729q-0.13841-0.95036-0.83154-1.4849-0.67316-0.55434-1.9007-0.55434-1.4651 0-2.0789 0.49495-0.61378 0.47509-0.61378 1.1087 0 0.4157 0.25718 0.75239 0.25717 0.33667 0.81176 0.55434 0.31656 0.11873 1.8611 0.55438 2.2373 0.59396 3.1282 0.97014 0.89097 0.37643 1.3859 1.1087 0.51479 0.73255 0.51479 1.8215 0 1.0494-0.61378 1.9997-0.61378 0.93058-1.7819 1.4453-1.1681 0.49502-2.6333 0.49502-2.4352 0-3.7222-1.0098-1.2671-1.0098-1.6235-2.9896z"/>
  <path d="m399.34 380.07v-17.225h2.2967v7.0683h8.949v-7.0683h2.2769v17.225h-2.2769v-8.1176h-8.949v8.1176zm24.893-1.5444q-1.1879 1.0097-2.2769 1.4255-1.089 0.39607-2.3363 0.39607-2.0393 0-3.148-0.98992-1.1087-1.0098-1.1087-2.5739 0-0.93053 0.4157-1.6829 0.4157-0.75232 1.089-1.2077 0.67316-0.45544 1.5245-0.69294 0.63356-0.17816 1.8809-0.31656 2.5738-0.31656 3.7816-0.73254 0-0.43534 0-0.5544 0-1.2869-0.59395-1.8215-0.81176-0.71276-2.4155-0.71276-1.4849 0-2.1977 0.51478-0.71277 0.51474-1.0494 1.8611l-2.0789-0.29692q0.29693-1.3266 0.93053-2.1383 0.65338-0.81171 1.8611-1.2473 1.2276-0.45544 2.851-0.45544 1.6037 0 2.5937 0.37642 0.98996 0.37643 1.4651 0.95036 0.47508 0.57417 0.65334 1.4453 0.11877 0.53456 0.11877 1.9403v2.8312q0 2.95 0.11877 3.742 0.13841 0.77217 0.55439 1.4849h-2.2175q-0.33668-0.65338-0.4157-1.5444zm-0.17816-4.7121q-1.1483 0.45544-3.4648 0.79193-1.3067 0.17816-1.8413 0.4157-0.53457 0.23754-0.83154 0.69295-0.29693 0.45544-0.29693 1.0097 0 0.85138 0.63356 1.4256 0.65334 0.55434 1.8809 0.55434 1.2275 0 2.1779-0.53456 0.95036-0.55436 1.4057-1.4651 0.33668-0.73259 0.33668-2.1185zm4.3171 2.5342 2.0987-0.33669q0.17816 1.2671 0.97014 1.9403 0.81176 0.65338 2.2571 0.65338 1.4651 0 2.1581-0.59394 0.71277-0.594 0.71277-1.3859 0-0.71278-0.61378-1.1286-0.43581-0.27729-2.1581-0.71273-2.3363-0.59399-3.247-1.0097-0.89093-0.43582-1.3661-1.188-0.45545-0.77216-0.45545-1.6829 0-0.83154 0.37643-1.5443 0.39606-0.71276 1.0493-1.1879 0.49501-0.35631 1.3463-0.61372 0.85137-0.25766 1.8215-0.25766 1.4849 0 2.5937 0.43533 1.1087 0.4157 1.6235 1.1483 0.53456 0.71277 0.73255 1.9205l-2.0591 0.27728q-0.13841-0.95036-0.83154-1.4849-0.67316-0.55438-1.9007-0.55438-1.4651 0-2.0789 0.495-0.61378 0.47509-0.61378 1.1087 0 0.4157 0.25718 0.75232 0.25718 0.33668 0.81176 0.5544 0.31656 0.11873 1.8611 0.55434 2.2373 0.594 3.1282 0.97014 0.89097 0.37643 1.3859 1.1087 0.51478 0.73259 0.51478 1.8215 0 1.0494-0.61378 1.9997-0.61378 0.93053-1.7819 1.4453-1.1681 0.49495-2.6333 0.49495-2.4352 0-3.7222-1.0097-1.2671-1.0098-1.6235-2.9896zm19.239 3.7222v-12.493h1.9007v1.7819q1.3859-2.0591 3.9796-2.0591 1.1285 0 2.0789 0.41569 0.95036 0.39606 1.4058 1.0691 0.47508 0.65338 0.67316 1.5443 0.11877 0.59399 0.11877 2.0591v7.6818h-2.1185v-7.6028q0-1.287-0.25766-1.9205-0.23754-0.65338-0.87115-1.0296-0.63356-0.37643-1.4849-0.37643-1.3463 0-2.3362 0.85137-0.97014 0.85137-0.97014 3.2668v6.8107zm12.356-6.2364q0-3.4648 1.9403-5.1479 1.6038-1.3859 3.9202-1.3859 2.5738 0 4.1974 1.7027 1.6433 1.683 1.6433 4.6528 0 2.4154-0.73255 3.8014-0.71277 1.3662-2.0987 2.1383-1.3661 0.75234-3.0094 0.75234-2.6135 0-4.237-1.6829t-1.6235-4.8308zm2.1779 0q0 2.3957 1.0494 3.5836t2.6333 1.1879 2.6134-1.1879q1.0494-1.2077 1.0494-3.6628 0-2.3165-1.0494-3.5044t-2.6134-1.1879q-1.5839 0-2.6333 1.1879t-1.0494 3.5836zm18.33 6.2364v-12.493h1.9007v1.7819q1.3859-2.0591 3.9795-2.0591 1.1286 0 2.0789 0.41569 0.95031 0.39606 1.4057 1.0691 0.47508 0.65338 0.67316 1.5443 0.11877 0.59399 0.11877 2.0591v7.6818h-2.1185v-7.6028q0-1.287-0.25718-1.9205-0.23754-0.65338-0.87119-1.0296-0.63356-0.37643-1.4849-0.37643-1.3463 0-2.3363 0.85137-0.97014 0.85137-0.97014 3.2668v6.8107zm12.356-6.2364q0-3.4648 1.9403-5.1479 1.6037-1.3859 3.9202-1.3859 2.5738 0 4.1974 1.7027 1.6433 1.683 1.6433 4.6528 0 2.4154-0.73255 3.8014-0.71277 1.3662-2.0987 2.1383-1.3661 0.75234-3.0094 0.75234-2.6135 0-4.237-1.6829t-1.6235-4.8308zm2.1779 0q0 2.3957 1.0494 3.5836t2.6333 1.1879 2.6134-1.1879q1.0494-1.2077 1.0494-3.6628 0-2.3165-1.0494-3.5044t-2.6134-1.1879q-1.5839 0-2.6333 1.1879t-1.0494 3.5836zm16.394 4.336 0.29693 1.8809q-0.89093 0.17816-1.6037 0.17816-1.1483 0-1.7819-0.35632-0.63355-0.37594-0.89097-0.95031-0.25718-0.59399-0.25718-2.5145v-7.1674h-1.5641v-1.6631h1.5641v-3.0886l2.0987-1.2672v4.3558h2.1383v1.6631h-2.1383v7.2862q0 0.91075 0.0991 1.1681 0.11877 0.25719 0.37643 0.41571 0.25718 0.15852 0.73255 0.15852 0.33668 0 0.93058-0.0991zm1.9547-12.909v-2.4154h2.1185v2.4154zm0 14.809v-12.493h2.1185v12.493zm4.4403-6.2364q0-3.4648 1.9403-5.1479 1.6037-1.3859 3.9202-1.3859 2.5738 0 4.1974 1.7027 1.6433 1.683 1.6433 4.6528 0 2.4155-0.73255 3.8014-0.71277 1.3662-2.0987 2.1383-1.3661 0.75234-3.0094 0.75234-2.6135 0-4.237-1.6829t-1.6235-4.8308zm2.1779 0q0 2.3957 1.0494 3.5836t2.6333 1.1879 2.6134-1.1879q1.0494-1.2077 1.0494-3.6628 0-2.3165-1.0494-3.5044-1.0494-1.188-2.6134-1.188-1.5839 0-2.6333 1.188-1.0494 1.1879-1.0494 3.5836zm11.762 6.2364v-12.493h1.9007v1.7819q1.3859-2.0591 3.9795-2.0591 1.1286 0 2.0789 0.41569 0.95036 0.39607 1.4058 1.0691 0.47508 0.6534 0.67316 1.5443 0.11877 0.59401 0.11877 2.0591v7.6818h-2.1185v-7.6028q0-1.2869-0.25718-1.9205-0.23754-0.65338-0.87115-1.0296-0.63355-0.37642-1.4849-0.37642-1.3463 0-2.3362 0.85137-0.97014 0.85136-0.97014 3.2668v6.8107z"/>
  <path d="m406.09 401.04q0-3.4648 1.9403-5.1478 1.6037-1.3859 3.9202-1.3859 2.5738 0 4.1974 1.7027 1.6433 1.6829 1.6433 4.6528 0 2.4154-0.73255 3.8014-0.71277 1.3661-2.0987 2.1382-1.3661 0.75239-3.0094 0.75239-2.6134 0-4.237-1.6829-1.6235-1.6829-1.6235-4.8308zm2.1779 0q0 2.3956 1.0494 3.5836t2.6333 1.188 2.6134-1.188q1.0494-1.2077 1.0494-3.6628 0-2.3165-1.0494-3.5044-1.0494-1.188-2.6134-1.188-1.5839 0-2.6333 1.188t-1.0494 3.5836zm12.277 6.2364v-10.83h-1.8809v-1.6631h1.8809v-1.3266q0-1.2473 0.21791-1.8611 0.29693-0.83153 1.0692-1.3265 0.77216-0.51478 2.158-0.51478 0.89097 0 1.9799 0.19779l-0.31656 1.8611q-0.65338-0.11873-1.2473-0.11873-0.97014 0-1.3661 0.41571-0.39606 0.39605-0.39606 1.5245v1.1484h2.4353v1.6631h-2.4353v10.83zm17.254-1.9007 0.29693 1.8809q-0.89093 0.17816-1.6037 0.17816-1.1483 0-1.7819-0.35632-0.63356-0.37642-0.89092-0.95036-0.25766-0.59394-0.25766-2.5144v-7.1674h-1.5641v-1.6631h1.5641v-3.0887l2.0987-1.2671v4.3558h2.1383v1.6631h-2.1383v7.2862q0 0.91075 0.0991 1.1681 0.11877 0.25719 0.37643 0.41571 0.25718 0.15852 0.73255 0.15852 0.33668 0 0.93058-0.0991zm1.935 1.9007v-17.225h2.1185v6.177q1.4849-1.7225 3.742-1.7225 1.3859 0 2.3957 0.55434 1.0295 0.53457 1.4651 1.5048 0.45545 0.97013 0.45545 2.7916v7.9193h-2.1185v-7.9193q0-1.5839-0.69299-2.2967-0.69294-0.73255-1.9403-0.73255-0.95036 0-1.7819 0.49496-0.81176 0.47508-1.1681 1.3266-0.35631 0.83154-0.35631 2.2966v6.8308zm21.701-4.0192 2.1779 0.27729q-0.51478 1.9007-1.9205 2.9698-1.3859 1.0494-3.5638 1.0494-2.7323 0-4.336-1.6829t-1.6037-4.7319q0-3.1481 1.6037-4.8902 1.6235-1.7423 4.2171-1.7423 2.5145 0 4.0984 1.7027t1.5839 4.8112q0 0.17815-0.0192 0.55438h-9.3053q0.11877 2.059 1.1681 3.148 1.0494 1.089 2.6135 1.089 1.1483 0 1.9601-0.594 0.83154-0.61373 1.3265-1.9601zm-6.9495-3.4252h6.9692q-0.1384-1.5641-0.79193-2.356-1.0098-1.2276-2.6333-1.2276-1.4453 0-2.4551 0.98997-0.98997 0.97014-1.089 2.5936zm18.112 7.4443v-12.493h1.9007v1.7621q0.57417-0.91075 1.5443-1.4651 0.98997-0.57417 2.2373-0.57417 1.3859 0 2.2769 0.57417 0.89097 0.57418 1.2473 1.6235 1.4849-2.1976 3.8608-2.1976 1.8611 0 2.851 1.0295 1.0097 1.0296 1.0097 3.1678v8.5731h-2.1185v-7.86q0-1.2671-0.19779-1.8215-0.19779-0.57418-0.75233-0.91075-0.53456-0.33668-1.2672-0.33668-1.3067 0-2.1779 0.87114-0.87114 0.87115-0.87114 2.8115v7.2465h-2.1185v-8.1176q0-1.4057-0.51478-2.0987-0.51474-0.71277-1.7027-0.71277-0.89097 0-1.6631 0.47508-0.75232 0.45546-1.0889 1.3661-0.33667 0.91076-0.33667 2.6135v6.474zm18.9-6.2364q0-3.4648 1.9403-5.1479 1.6037-1.3859 3.9202-1.3859 2.5738 0 4.1974 1.7027 1.6433 1.6829 1.6433 4.6528 0 2.4154-0.73255 3.8014-0.71277 1.3661-2.0987 2.1382-1.3661 0.75238-3.0094 0.75238-2.6135 0-4.237-1.6829t-1.6235-4.8308zm2.1779 0q0 2.3956 1.0494 3.5836t2.6333 1.188 2.6134-1.188q1.0494-1.2077 1.0494-3.6628 0-2.3165-1.0494-3.5044-1.0494-1.188-2.6134-1.188-1.5839 0-2.6333 1.188-1.0494 1.1879-1.0494 3.5836zm19.859 6.2364v-1.5839q-1.1879 1.8611-3.4846 1.8611-1.4849 0-2.752-0.81176-1.2473-0.83154-1.9403-2.2967-0.67316-1.4849-0.67316-3.4054 0-1.8611 0.61373-3.3856 0.63356-1.5245 1.8611-2.3362 1.2473-0.81176 2.7916-0.81176 1.1285 0 1.9997 0.47508 0.89097 0.47509 1.4454 1.2473v-6.177h2.0987v17.225zm-6.6919-6.2364q0 2.3956 1.0098 3.5836 1.0296 1.188 2.3957 1.188 1.3859 0 2.3561-1.1286 0.97014-1.1285 0.97014-3.4648 0-2.5541-0.98992-3.742-0.98996-1.2078-2.4353-1.2078-1.4057 0-2.3561 1.1484-0.95036 1.1483-0.95036 3.6232zm20.295 2.2175 2.1779 0.2773q-0.51478 1.9007-1.9205 2.9698-1.3859 1.0494-3.5638 1.0494-2.7322 0-4.336-1.6829-1.6037-1.6829-1.6037-4.7319 0-3.148 1.6037-4.8902 1.6235-1.7423 4.2171-1.7423 2.5145 0 4.0984 1.7027t1.5839 4.8112q0 0.17816-0.0192 0.55439h-9.3053q0.11876 2.059 1.1682 3.148 1.0493 1.089 2.6134 1.089 1.1483 0 1.9601-0.594 0.83154-0.61373 1.3265-1.96zm-6.9495-3.4252h6.9692q-0.1384-1.5641-0.79198-2.356-1.0097-1.2276-2.6332-1.2276-1.4453 0-2.4551 0.98997-0.98997 0.97014-1.089 2.5936zm11.504 7.4443v-17.225h2.1185v17.225z"/>
 </g>
 <g stroke="#000" stroke-miterlimit="10" stroke-width="2.5343">
  <path d="m167.74 168.05-37.294 76.32" fill="none" stroke-linejoin="round"/>
  <path d="m171.47 169.87 1.2882-12.171-8.8101 8.4955z" fill-rule="evenodd"/>
  <path d="m126.64 242.52-1.2883 12.171 8.8101-8.4955z" fill-rule="evenodd"/>
  <path d="m342.06 163.65 39.366 89.916" fill="none" stroke-linejoin="round"/>
  <path d="m345.89 161.97-8.4471-8.8566 0.77795 12.214z" fill-rule="evenodd"/>
  <path d="m377.6 255.22 8.4471 8.8566-0.778-12.214z" fill-rule="evenodd"/>
 </g>
</svg>
